<?xml version="1.0" standalone="no"?>
<!DOCTYPE svg PUBLIC "-//W3C//DTD SVG 20010904//EN"
 "http://www.w3.org/TR/2001/REC-SVG-20010904/DTD/svg10.dtd">
<svg version="1.0" xmlns="http://www.w3.org/2000/svg"
 width="16.000000pt" height="16.000000pt" viewBox="0 0 16.000000 16.000000"
 preserveAspectRatio="xMidYMid meet">
<metadata>
Created by potrace 1.11, written by Peter Selinger 2001-2013
</metadata>
<g transform="translate(0.000000,16.000000) scale(0.003042,-0.003042)"
fill="#000000" stroke="none">
<path d="M2427 5224 c-2 -3 -31 -7 -63 -10 -32 -2 -72 -7 -89 -10 -16 -3 -43
-8 -60 -10 -16 -2 -41 -6 -55 -9 -14 -3 -45 -10 -70 -15 -25 -6 -56 -13 -70
-16 -14 -3 -29 -7 -35 -8 -46 -10 -275 -86 -290 -96 -5 -4 -27 -13 -48 -20
-80 -25 -376 -181 -385 -202 -2 -5 -8 -8 -13 -8 -5 0 -27 -12 -48 -27 -21 -16
-49 -35 -61 -43 -12 -8 -31 -23 -42 -32 -12 -10 -24 -18 -27 -18 -3 0 -17 -10
-31 -22 -14 -13 -52 -45 -85 -73 -73 -61 -227 -215 -275 -274 -19 -23 -43 -53
-54 -64 -54 -63 -216 -296 -216 -313 0 -4 -6 -15 -14 -23 -20 -23 -155 -294
-160 -321 -1 -8 -10 -32 -19 -53 -18 -43 -75 -217 -81 -250 -3 -12 -5 -23 -7
-24 -2 -4 -1 -1 -23 -94 -18 -79 -20 -89 -31 -174 -3 -27 -8 -61 -11 -75 -21
-116 -21 -496 0 -620 3 -14 7 -43 10 -65 3 -22 8 -53 11 -70 3 -16 8 -46 11
-65 12 -71 18 -96 26 -120 3 -8 16 -53 29 -100 12 -47 26 -89 31 -95 4 -5 8
-16 8 -25 0 -35 132 -334 174 -395 12 -16 20 -31 18 -33 -7 -7 201 -320 227
-342 4 -3 26 -30 51 -60 53 -64 192 -205 270 -274 30 -27 64 -56 76 -66 11
-11 72 -55 135 -99 63 -45 119 -86 126 -91 7 -6 14 -10 16 -10 3 0 52 -27 110
-60 59 -33 108 -60 111 -60 2 0 37 -15 78 -33 188 -86 423 -160 578 -182 24
-4 47 -8 50 -10 3 -1 28 -6 55 -9 28 -4 68 -9 90 -12 105 -13 345 -18 480 -10
59 4 190 20 245 31 13 3 42 7 64 11 22 3 43 7 47 9 3 2 20 7 37 10 65 11 272
75 370 114 113 45 310 141 353 172 15 10 30 19 33 19 12 0 182 118 281 195
183 143 332 304 543 590 30 40 122 200 122 211 0 8 4 14 8 14 5 0 17 19 27 43
17 37 71 158 95 212 17 37 78 214 85 248 2 10 7 26 9 35 4 12 -4 23 -25 34
-17 10 -35 18 -40 18 -6 0 -15 5 -22 10 -7 6 -61 35 -122 66 -256 130 -595
304 -653 335 l-64 34 38 32 c21 17 41 30 45 27 4 -2 9 0 11 4 1 5 30 28 63 53
33 24 62 47 63 52 2 4 10 7 18 7 8 0 14 4 14 8 0 4 15 16 33 27 17 10 37 24
44 29 21 19 146 112 223 166 12 8 61 44 109 80 49 36 136 100 195 143 97 71
107 81 102 105 -13 68 -17 88 -23 102 -3 8 -8 24 -10 35 -7 37 -95 290 -120
345 -58 127 -68 146 -82 163 -8 9 -11 17 -8 17 4 0 -17 39 -45 88 -302 513
-748 899 -1288 1116 -52 21 -99 39 -105 40 -5 2 -48 15 -95 30 -47 15 -96 30
-110 32 -14 3 -34 8 -45 11 -11 4 -24 8 -30 9 -35 8 -75 15 -105 20 -19 3 -42
7 -50 9 -15 4 -72 13 -140 22 -48 6 -497 12 -503 7z m987 -1009 c232 -28 432
-185 519 -405 35 -88 48 -169 43 -270 -12 -303 -232 -555 -533 -611 -57 -11
-206 -8 -258 4 -259 61 -459 277 -501 542 -7 43 -6 176 2 205 3 14 7 32 8 40
1 8 8 33 15 55 76 232 291 409 536 441 28 3 51 7 52 8 3 3 62 -2 117 -9z"/>
</g>
</svg>
