<?xml version="1.0" standalone="no"?>
<!DOCTYPE svg PUBLIC "-//W3C//DTD SVG 20010904//EN"
 "http://www.w3.org/TR/2001/REC-SVG-20010904/DTD/svg10.dtd">
<svg version="1.0" xmlns="http://www.w3.org/2000/svg"
 width="16.000000pt" height="16.000000pt" viewBox="0 0 16.000000 16.000000"
 preserveAspectRatio="xMidYMid meet">
<metadata>
Created by potrace 1.11, written by Peter Selinger 2001-2013
</metadata>
<g transform="translate(0.000000,16.000000) scale(0.003042,-0.003042)"
fill="#000000" stroke="none">
<path d="M2420 5250 c-30 -4 -82 -10 -115 -14 -33 -4 -102 -16 -154 -27 -51
-10 -103 -21 -115 -23 -34 -7 -258 -76 -275 -86 -9 -4 -20 -9 -26 -10 -47 -11
-350 -150 -365 -169 -3 -3 -25 -17 -50 -30 -173 -93 -435 -306 -605 -492 -107
-117 -238 -290 -270 -356 -9 -18 -20 -33 -25 -33 -6 0 -10 -4 -10 -9 0 -5 -20
-44 -45 -87 -115 -201 -242 -543 -279 -749 -3 -16 -8 -40 -10 -51 -8 -37 -17
-98 -22 -139 -2 -22 -7 -56 -10 -75 -8 -48 -15 -450 -8 -461 3 -5 7 -37 9 -72
3 -53 13 -120 41 -272 18 -102 78 -302 130 -435 33 -83 146 -315 176 -360 13
-19 41 -64 62 -100 22 -35 45 -71 52 -80 7 -8 38 -49 69 -90 215 -288 522
-548 856 -724 94 -49 250 -121 289 -132 8 -2 71 -23 140 -45 69 -22 141 -44
160 -49 75 -19 126 -30 155 -35 17 -2 41 -7 55 -10 14 -3 45 -7 70 -10 25 -2
56 -7 70 -10 52 -14 484 -13 580 1 52 7 111 15 130 18 57 7 193 36 220 47 14
5 39 12 55 15 32 6 210 63 260 84 80 34 107 46 202 91 56 27 105 54 108 59 3
6 15 10 26 10 10 0 19 4 19 8 0 5 15 16 33 25 36 19 49 27 122 76 79 54 110
76 115 81 3 3 34 28 70 55 36 27 124 108 195 180 131 130 150 152 215 235 19
25 37 47 40 50 7 5 88 124 105 152 5 9 29 48 52 87 24 38 43 74 43 79 0 6 3
12 8 14 22 10 189 402 192 450 1 4 7 26 15 48 l14 40 -42 21 c-23 12 -96 50
-162 84 -66 34 -210 109 -320 165 -230 118 -449 231 -452 234 -2 1 52 42 120
91 67 49 127 93 132 97 6 4 33 26 62 48 29 22 57 40 62 40 5 0 11 3 13 8 2 4
26 24 53 44 28 21 55 41 60 45 6 5 34 26 64 47 30 21 59 43 65 48 12 10 161
119 257 188 34 24 67 50 73 56 6 6 22 16 35 23 18 10 21 18 16 39 -4 15 -9 38
-12 52 -2 14 -10 44 -18 67 -8 23 -16 52 -19 65 -19 99 -185 482 -247 569 -10
15 -19 32 -19 38 0 6 -4 11 -10 11 -5 0 -10 5 -10 10 0 6 -24 45 -52 87 -29
42 -57 83 -63 91 -5 9 -14 21 -20 27 -5 7 -21 27 -35 45 -71 94 -281 310 -374
385 -27 22 -54 45 -60 50 -27 26 -192 138 -282 192 -304 182 -677 312 -1004
348 -19 2 -46 7 -60 10 -36 9 -455 13 -520 5z"/>
</g>
</svg>
