<?xml version="1.0" standalone="no"?>
<!DOCTYPE svg PUBLIC "-//W3C//DTD SVG 20010904//EN"
 "http://www.w3.org/TR/2001/REC-SVG-20010904/DTD/svg10.dtd">
<svg version="1.0" xmlns="http://www.w3.org/2000/svg"
 width="700.000000pt" height="700.000000pt" viewBox="0 0 700.000000 700.000000"
 preserveAspectRatio="xMidYMid meet">
<metadata>
Created by potrace 1.11, written by Peter Selinger 2001-2013
</metadata>
<g transform="translate(0.000000,700.000000) scale(0.100000,-0.100000)"
fill="#000000" stroke="none">
<path d="M4735 5128 c-143 -50 -343 -118 -445 -153 -102 -35 -304 -105 -450
-155 -146 -51 -276 -95 -290 -100 -14 -5 -90 -31 -170 -58 -80 -28 -275 -95
-435 -150 -159 -55 -416 -144 -570 -197 -154 -53 -336 -116 -405 -140 -69 -23
-133 -46 -142 -50 -15 -6 -7 -20 50 -90 37 -46 73 -84 81 -84 12 -1 265 76
361 109 22 8 300 96 535 170 124 39 439 139 685 217 113 36 241 76 285 90 44
14 100 32 125 40 25 8 173 55 330 104 157 50 362 114 455 144 94 30 208 66
255 81 47 14 88 29 92 33 6 5 -29 115 -83 267 -3 7 -101 -22 -264 -78z"/>
<path d="M6709 4783 c-64 -70 -170 -147 -276 -203 -35 -17 -63 -35 -63 -39 1
-11 117 -91 134 -91 37 0 211 98 284 159 29 25 28 32 -11 130 l-34 82 -34 -38z"/>
<path d="M4955 4460 c-47 -18 -125 -129 -125 -177 0 -32 59 -94 120 -125 42
-22 56 -25 80 -17 51 18 131 130 127 178 -1 12 -17 39 -37 59 -62 65 -126 97
-165 82z"/>
<path d="M6650 4309 c-69 -10 -129 -18 -133 -19 -8 0 -3 -80 8 -140 2 -14 7
-45 10 -70 3 -25 8 -56 10 -70 5 -32 12 -81 20 -145 3 -27 10 -75 15 -105 5
-30 12 -79 15 -109 4 -30 8 -62 10 -71 2 -9 6 -41 10 -71 3 -30 8 -61 10 -69
2 -8 7 -37 10 -65 3 -27 7 -59 9 -70 2 -11 8 -49 12 -85 4 -36 9 -68 10 -72 1
-5 2 -15 3 -24 1 -12 8 -14 29 -10 29 6 46 8 195 27 l99 13 -7 60 c-3 34 -8
70 -10 81 -2 11 -6 38 -9 60 -5 40 -8 63 -26 185 -5 36 -12 81 -14 100 -14 95
-17 117 -21 145 -3 17 -7 53 -10 80 -3 28 -8 62 -10 78 -12 69 -15 87 -25 167
-12 94 -15 115 -25 178 -8 50 0 49 -185 21z"/>
<path d="M4135 4270 c-14 -45 -123 -175 -188 -224 -43 -33 -42 -36 38 -92 l54
-37 38 28 c21 15 54 45 73 66 l35 40 35 -25 c19 -14 58 -34 87 -45 l52 -20 51
65 51 65 -38 15 c-86 34 -156 79 -228 146 -46 44 -51 45 -60 18z"/>
<path d="M6295 4121 c-5 -5 -39 -19 -75 -31 -56 -19 -89 -23 -235 -24 -148 -2
-179 -5 -236 -25 -200 -69 -294 -246 -239 -452 13 -50 74 -133 121 -162 31
-20 36 -32 18 -43 -21 -13 -69 -98 -69 -124 0 -20 14 -36 60 -70 33 -25 60
-48 60 -52 0 -4 -9 -9 -20 -13 -33 -10 -96 -91 -113 -146 -50 -155 23 -321
178 -402 145 -75 381 -69 547 14 70 36 154 118 188 184 21 42 25 64 25 135 0
71 -4 94 -26 140 -31 66 -69 109 -127 144 -50 31 -167 69 -267 86 -107 18
-113 20 -118 40 -7 28 3 35 78 60 173 57 262 177 258 347 -1 34 -7 71 -12 82
-17 30 -14 35 34 54 25 11 43 23 40 27 -5 8 -15 52 -31 132 -13 67 -29 109
-39 99z"/>
<path d="M3185 3913 c-77 -42 -141 -76 -142 -77 -1 -1 4 -45 11 -99 12 -92 11
-97 -6 -98 -10 -1 -21 -2 -25 -3 -5 -1 -34 -5 -65 -10 -32 -4 -60 -11 -62 -14
-2 -4 -1 -28 4 -52 4 -25 11 -67 14 -95 15 -116 13 -113 54 -105 21 4 58 10
85 14 40 5 47 3 48 -12 0 -9 2 -24 4 -33 1 -8 6 -42 10 -75 13 -102 14 -108
19 -139 3 -16 8 -52 11 -80 14 -117 53 -206 114 -262 44 -41 141 -82 205 -87
72 -5 165 9 214 32 l35 17 -2 80 c-2 44 -4 94 -6 110 -2 17 -3 40 -4 51 -1 21
-3 21 -38 8 -21 -7 -59 -13 -84 -14 -76 0 -110 39 -123 145 -3 22 -8 60 -11
85 -3 25 -8 56 -10 70 -2 14 -7 45 -10 70 -3 25 -8 53 -11 62 -6 21 7 25 156
43 25 3 54 8 65 10 11 2 28 4 39 4 17 1 18 9 13 134 -3 72 -6 133 -6 134 -1 2
-12 0 -86 -12 -16 -2 -50 -7 -75 -10 -25 -3 -69 -9 -97 -14 -50 -7 -53 -7 -54
13 0 12 -2 30 -5 41 -2 11 -6 34 -8 50 -12 85 -28 195 -30 195 0 0 -64 -35
-141 -77z"/>
<path d="M5137 3934 c-1 -1 -40 -7 -87 -14 -162 -21 -151 -15 -144 -69 2 -25
9 -75 15 -111 16 -103 17 -112 24 -170 4 -30 9 -64 11 -74 2 -11 6 -40 9 -65
3 -25 7 -55 9 -67 2 -12 7 -45 11 -74 4 -29 8 -61 10 -70 2 -9 6 -41 10 -71 3
-30 10 -81 16 -114 5 -33 10 -73 12 -90 4 -33 8 -34 102 -20 64 10 68 11 141
20 34 4 66 10 72 14 10 6 3 80 -23 249 -3 17 -7 49 -10 70 -3 20 -7 51 -10 67
-3 17 -7 53 -10 80 -3 28 -8 61 -10 75 -3 14 -7 41 -10 60 -2 19 -9 67 -14
105 -6 39 -13 93 -16 120 -4 28 -11 70 -15 95 -5 24 -6 48 -3 53 4 7 -83 8
-90 1z"/>
<path d="M710 3912 c-164 -23 -335 -110 -461 -235 -252 -250 -318 -645 -159
-957 107 -211 284 -359 511 -428 330 -101 700 26 908 311 47 65 107 185 117
234 l6 32 -138 70 c-77 39 -145 74 -152 79 -9 6 33 43 148 126 88 65 160 119
160 121 0 2 -9 34 -21 71 -107 350 -444 593 -807 583 -48 -2 -98 -5 -112 -7z"/>
<path d="M4185 3828 c-112 -13 -294 -76 -324 -112 -9 -11 -3 -44 40 -209 l10
-38 27 19 c93 62 258 104 346 88 27 -5 42 -16 56 -39 20 -32 27 -76 13 -78
-52 -5 -249 -62 -292 -83 -145 -74 -213 -221 -171 -371 28 -103 97 -175 199
-212 141 -51 348 -2 429 102 l20 25 52 -35 c54 -37 56 -37 131 -40 l47 -2 40
119 39 118 -36 10 c-21 5 -47 20 -59 33 -23 24 -45 110 -57 217 -15 142 -35
232 -63 290 -74 152 -232 222 -447 198z m216 -575 c0 -5 2 -17 5 -28 10 -51 5
-114 -11 -142 -38 -64 -119 -94 -182 -68 -75 32 -68 155 12 198 20 10 139 44
163 46 6 1 12 -2 13 -6z"/>
<path d="M2199 3785 c-28 -15 -56 -22 -70 -19 -13 3 -44 5 -68 6 -38 1 -48 -3
-68 -28 -34 -43 -30 -75 15 -115 67 -62 154 -119 180 -119 31 0 162 180 162
223 0 29 -54 77 -86 77 -11 0 -40 -11 -65 -25z"/>
<path d="M2270 3355 c-106 -16 -191 -28 -207 -28 -8 0 -11 -11 -8 -31 3 -17
14 -96 25 -176 11 -80 22 -156 25 -170 4 -27 16 -120 21 -157 1 -13 5 -42 9
-65 7 -48 10 -70 20 -146 l7 -53 47 6 c25 3 73 10 106 15 33 5 83 12 110 16
28 3 53 8 56 10 4 2 3 24 -2 48 -4 24 -10 65 -14 90 -5 45 -22 167 -30 216 -2
14 -7 50 -10 80 -4 30 -9 62 -10 70 -1 8 -6 40 -10 70 -4 30 -8 62 -10 70 -7
43 -18 136 -17 143 2 8 3 8 -108 -8z"/>
<path d="M2067 2254 c-26 -53 -46 -98 -45 -100 4 -3 111 -11 268 -19 58 -3
141 -8 185 -11 115 -6 224 -12 350 -19 61 -3 142 -8 180 -10 39 -3 117 -7 175
-10 58 -3 139 -8 180 -10 41 -2 120 -7 175 -9 55 -3 136 -8 180 -11 79 -5 193
-11 370 -20 155 -8 429 -24 530 -30 33 -2 116 -7 185 -10 69 -4 144 -8 167
-10 23 -2 107 -7 185 -11 79 -3 161 -8 183 -9 22 -2 99 -6 170 -9 72 -4 159
-9 195 -11 36 -3 111 -7 168 -10 l102 -6 1 63 c1 35 2 112 3 172 l1 110 -110
2 c-60 1 -254 5 -430 8 -176 4 -419 9 -540 11 -121 3 -344 7 -495 10 -151 3
-372 7 -490 10 -118 2 -343 7 -500 10 -157 3 -377 8 -490 10 -113 2 -340 7
-505 10 l-300 5 -48 -96z"/>
</g>
</svg>
