<svg xmlns="http://www.w3.org/2000/svg" xmlns:xlink="http://www.w3.org/1999/xlink" version="1.1" x="0px" y="0px" viewBox="0 0 24 30" style="enable-background:new 0 0 24 24;" xml:space="preserve"><g><path d="M12,0.5C5.659,0.5,0.5,5.659,0.5,12S5.659,23.5,12,23.5S23.5,18.341,23.5,12S18.341,0.5,12,0.5z M12,8.5   c1.93,0,3.5,1.57,3.5,3.5s-1.57,3.5-3.5,3.5S8.5,13.93,8.5,12S10.07,8.5,12,8.5z M12,22.5c-5.621,0-10.211-4.443-10.475-10h6.025   c0.252,2.244,2.139,4,4.449,4s4.197-1.756,4.449-4h6.025C22.211,18.057,17.621,22.5,12,22.5z"/><path d="M12,9.5c-1.378,0-2.5,1.122-2.5,2.5s1.122,2.5,2.5,2.5s2.5-1.122,2.5-2.5S13.378,9.5,12,9.5z M12,13.5   c-0.827,0-1.5-0.673-1.5-1.5s0.673-1.5,1.5-1.5s1.5,0.673,1.5,1.5S12.827,13.5,12,13.5z"/></g><text x="0" y="39" fill="#000000" font-size="5px" font-weight="bold" font-family="'Helvetica Neue', Helvetica, Arial-Unicode, Arial, Sans-serif">Created by icon 54</text><text x="0" y="44" fill="#000000" font-size="5px" font-weight="bold" font-family="'Helvetica Neue', Helvetica, Arial-Unicode, Arial, Sans-serif">from the Noun Project</text></svg>