<?xml version="1.0" encoding="utf-8"?>
<svg id="svg2" width="260" height="260" viewBox="0 0 260 260" xmlns="http://www.w3.org/2000/svg">
  <path d="M 57.908 214.571 C 11.2 174.886 5.507 104.849 45.195 58.142 C 84.88 11.434 154.917 5.742 201.625 45.429 C 221.122 61.995 233.473 83.852 238.359 107.089 C 238.404 107.303 238.448 107.516 238.492 107.727 L 197.235 137.857 L 237.097 158.319 C 233.004 173.876 225.45 188.781 214.337 201.859 C 174.653 248.566 104.615 254.258 57.908 214.571 Z M 158.921 62.012 C 143.549 62.012 131.089 74.472 131.089 89.844 C 131.089 105.215 143.549 117.676 158.921 117.676 C 174.292 117.676 186.753 105.215 186.753 89.844 C 186.753 74.472 174.292 62.012 158.921 62.012 Z" style="vector-effect: non-scaling-stroke; stroke-width: 0; stroke: rgb(59, 58, 60); fill: rgb(59, 58, 60);"/>
</svg>