<?xml version="1.0" encoding="UTF-8" standalone="no"?>
<!-- Created with Inkscape (http://www.inkscape.org/) -->

<svg
   xmlns:dc="http://purl.org/dc/elements/1.1/"
   xmlns:cc="http://creativecommons.org/ns#"
   xmlns:rdf="http://www.w3.org/1999/02/22-rdf-syntax-ns#"
   xmlns:svg="http://www.w3.org/2000/svg"
   xmlns="http://www.w3.org/2000/svg"
   xmlns:sodipodi="http://sodipodi.sourceforge.net/DTD/sodipodi-0.dtd"
   xmlns:inkscape="http://www.inkscape.org/namespaces/inkscape"
   id="svg2"
   version="1.1"
   inkscape:version="0.91 r13725"
   xml:space="preserve"
   width="260"
   height="262.83426"
   viewBox="0 0 260 262.83426"
   sodipodi:docname="favicon_black.svg"><metadata
     id="metadata8"><rdf:RDF><cc:Work
         rdf:about=""><dc:format>image/svg+xml</dc:format><dc:type
           rdf:resource="http://purl.org/dc/dcmitype/StillImage" /><dc:title></dc:title></cc:Work></rdf:RDF></metadata><defs
     id="defs6"><clipPath
       clipPathUnits="userSpaceOnUse"
       id="clipPath18"><path
         d="m 0,1067 1622,0 L 1622,0 0,0 0,1067 Z"
         id="path20"
         inkscape:connector-curvature="0"
         style="clip-rule:evenodd" /></clipPath><clipPath
       clipPathUnits="userSpaceOnUse"
       id="clipPath24"><path
         d="m 1025.84,733.9791 -10.617,75.5426 30.631,4.3049 10.617,-75.5426 -30.631,-4.3049 z m 145.428,88.8006 -26.699,-3.7523 4.77,-33.9424 c 0.485,-3.4494 1.898,-5.9945 4.239,-7.6354 2.341,-1.6408 5.306,-2.2091 8.893,-1.7049 4.001,0.5624 7.176,1.501 9.524,2.8159 l 1.214,-25.1559 c -3.098,-1.9832 -7.752,-3.411 -13.961,-4.2837 -10.21,-1.4349 -18.985,0.4274 -26.323,5.587 -7.338,5.1596 -11.666,12.4306 -12.985,21.8131 l -5.381,38.2887 -15.936,-2.2397 -3.491,24.8359 16.557,2.327 -2.559,18.213 27.433,15.0414 4.102,-29.1822 29.389,4.1304 1.214,-25.1559 z m 101.986,-58.9025 c -4.277,-0.6012 -8.306,-0.2176 -12.086,1.1506 -3.781,1.3682 -6.869,3.5723 -9.266,6.6123 -5.496,-7.9483 -13.763,-12.698 -24.802,-14.2494 -9.796,-1.3768 -18.295,0.278 -25.496,4.9644 -7.201,4.6864 -11.461,11.7208 -12.78,21.1033 -1.183,8.4166 0.775,15.762 5.873,22.0363 5.098,6.2742 12.339,10.5633 21.724,12.8671 l 18.365,4.4806 -0.465,3.3114 c -0.427,3.0355 -1.934,5.2508 -4.522,6.6459 -2.588,1.395 -6.435,1.7338 -11.54,1.0163 -5.243,-0.7369 -10.261,-2.0752 -15.054,-4.0151 -4.792,-1.9399 -8.649,-4.0297 -11.571,-6.2694 l -5.534,22.8602 c 3.178,2.4165 7.577,4.6528 13.198,6.7091 5.62,2.0562 11.397,3.5012 17.33,4.3351 13.246,1.8616 24.089,0.0438 32.53,-5.4533 8.441,-5.4971 13.505,-14.2476 15.192,-26.2517 l 3.781,-26.9055 c 1.144,-8.1407 5.381,-12.2588 12.711,-12.3542 l -7.588,-22.594 z m -34.935,39.8337 -12.45,-3.0162 c -4.081,-0.9956 -6.962,-2.7724 -8.643,-5.3302 -1.681,-2.5578 -2.298,-5.4234 -1.852,-8.5969 0.368,-2.6216 1.605,-4.6638 3.71,-6.1267 2.105,-1.463 4.607,-1.9908 7.504,-1.5836 3.863,0.543 7.124,2.373 9.781,5.4902 2.658,3.1172 3.715,6.6074 3.172,10.4708 l -1.222,8.6926 z m 58.472,82.9574 c -2.483,-0.3491 -5.967,1.1663 -10.452,4.546 -4.485,3.3797 -6.902,6.3113 -7.251,8.7949 -0.369,2.6216 1.137,6.1748 4.516,10.6599 3.38,4.485 6.312,6.902 8.795,7.2511 2.622,0.3684 6.175,-1.1372 10.66,-4.5169 4.485,-3.3797 6.912,-6.3803 7.28,-9.0019 0.369,-2.6216 -1.107,-6.1355 -4.428,-10.5419 -3.32,-4.4063 -6.36,-6.8034 -9.12,-7.1912 l 0,0 z m 2.133,-116.2286 -13.176,93.7556 30.631,4.3049 13.176,-93.7556 -30.631,-4.3049 z m 99.466,-36.4629 c -13.384,-1.881 -24.798,-0.003 -34.244,5.6345 -9.445,5.6373 -14.876,13.4921 -16.292,23.5645 -0.911,6.4849 -0.01,12.3105 2.715,17.4768 2.721,5.1664 6.646,9.0245 11.775,11.5745 l -12.274,9.2497 c 0.026,2.8177 0.924,5.6876 2.694,8.6098 1.77,2.9221 3.8,5.2476 6.09,6.9764 -4.232,2.0786 -7.856,5.0869 -10.871,9.0248 -3.016,3.938 -4.883,8.4595 -5.6,13.5647 -1.455,10.3484 0.812,19.2497 6.799,26.7042 5.988,7.4546 14.915,12.0156 26.781,13.6833 3.173,0.446 5.499,0.6673 6.977,0.6639 1.478,-0.003 3.576,-0.1657 6.294,-0.4872 2.719,-0.3214 5.132,-0.4747 7.241,-0.4598 2.108,0.015 4.542,0.2163 7.302,0.6042 6.209,0.8726 11.494,2.8113 15.856,5.8163 l 5.414,-23.5102 c -0.612,-0.6489 -1.786,-1.3064 -3.522,-1.9724 -1.735,-0.666 -3.5,-1.1251 -5.293,-1.3771 1.375,-1.7766 2.305,-4.3896 2.79,-7.839 1.241,-8.8306 -0.57,-16.7182 -5.433,-23.663 -4.864,-6.9447 -11.79,-11.4709 -20.78,-13.5786 -4.416,-0.6205 -6.449,-2.1726 -6.1,-4.6562 0.194,-1.3798 1.158,-2.2293 2.891,-2.5485 l 15.836,-3.0508 c 9.828,-1.8548 17.506,-5.1728 23.032,-9.9539 5.526,-4.7811 8.88,-11.3799 10.063,-19.7966 1.377,-9.7964 -1.623,-18.4842 -9,-26.0637 -7.377,-7.5795 -17.757,-12.3096 -31.141,-14.1906 l 0,0 z m -19.431,124.7457 c -3.726,-0.5236 -6.695,-2.172 -8.908,-4.9454 -2.214,-2.7734 -3.078,-5.8847 -2.593,-9.3342 0.485,-3.4494 2.173,-6.202 5.065,-8.2579 2.892,-2.0559 6.201,-2.822 9.926,-2.2984 3.726,0.5235 6.695,2.172 8.908,4.9453 2.213,2.7734 3.078,5.8847 2.593,9.3342 -0.485,3.4494 -2.173,6.2021 -5.065,8.2579 -2.892,2.0559 -6.201,2.822 -9.926,2.2985 l 0,0 z m 20.334,-78.6091 -12.913,1.7732 c -4.139,-0.5817 -7.345,-2.2986 -9.617,-5.1506 -2.273,-2.8521 -3.128,-6.2787 -2.566,-10.2801 0.524,-3.7254 2.586,-6.6365 6.188,-8.7334 3.601,-2.0969 8.368,-2.7284 14.301,-1.8946 5.519,0.7757 9.774,2.5345 12.766,5.2765 2.991,2.7421 4.264,5.6998 3.818,8.8733 -0.814,5.7951 -4.807,9.1736 -11.977,10.1357 l 0,0 z m 51.851,140.899 c -2.484,-0.3491 -5.968,1.1662 -10.453,4.546 -4.485,3.3797 -6.902,6.3113 -7.251,8.7949 -0.369,2.6216 1.137,6.1748 4.516,10.6599 3.38,4.485 6.312,6.902 8.795,7.251 2.622,0.3685 6.175,-1.1371 10.66,-4.5168 4.485,-3.3798 6.912,-6.3804 7.28,-9.0019 0.369,-2.6216 -1.107,-6.1355 -4.427,-10.5419 -3.321,-4.4063 -6.361,-6.8034 -9.12,-7.1912 l 0,0 z m 2.998,-131.713 -15.736,111.9686 30.631,4.3049 15.736,-111.9686 -30.631,-4.3049 z"
         id="path26"
         inkscape:connector-curvature="0"
         style="clip-rule:evenodd" /></clipPath><clipPath
       clipPathUnits="userSpaceOnUse"
       id="clipPath30"><path
         d="m 0,0 1622,0 0,1067 L 0,1067 0,0 Z"
         id="path32"
         inkscape:connector-curvature="0" /></clipPath><clipPath
       clipPathUnits="userSpaceOnUse"
       id="clipPath40"><path
         d="m 0,1067 1622,0 L 1622,0 0,0 0,1067 Z"
         id="path42"
         inkscape:connector-curvature="0"
         style="clip-rule:evenodd" /></clipPath><clipPath
       clipPathUnits="userSpaceOnUse"
       id="clipPath46"><path
         d="m 1021.627,717.126 366.878,-7.3167 -1.143,-32.7107 -375.419,20.9541 9.684,19.0733 z"
         id="path48"
         inkscape:connector-curvature="0"
         style="clip-rule:evenodd" /></clipPath><clipPath
       clipPathUnits="userSpaceOnUse"
       id="clipPath52"><path
         d="m 0,0 1622,0 0,1067 L 0,1067 0,0 Z"
         id="path54"
         inkscape:connector-curvature="0" /></clipPath><clipPath
       clipPathUnits="userSpaceOnUse"
       id="clipPath62"><path
         d="m 0,1067 1622,0 L 1622,0 0,0 0,1067 Z"
         id="path64"
         inkscape:connector-curvature="0"
         style="clip-rule:evenodd" /></clipPath><clipPath
       clipPathUnits="userSpaceOnUse"
       id="clipPath68"><path
         d="m 991.4552,887.9261 304.5128,98.9421 8.665,-26.6676 -299.628,-89.1462 -13.5498,16.8717 z"
         id="path70"
         inkscape:connector-curvature="0"
         style="clip-rule:evenodd" /></clipPath><clipPath
       clipPathUnits="userSpaceOnUse"
       id="clipPath74"><path
         d="m 0,0 1622,0 0,1067 L 0,1067 0,0 Z"
         id="path76"
         inkscape:connector-curvature="0" /></clipPath><clipPath
       clipPathUnits="userSpaceOnUse"
       id="clipPath84"><path
         d="m 0,1067 1622,0 L 1622,0 0,0 0,1067 Z"
         id="path86"
         inkscape:connector-curvature="0"
         style="clip-rule:evenodd" /></clipPath><clipPath
       clipPathUnits="userSpaceOnUse"
       id="clipPath90"><path
         d="m 975.8178,765.9627 c -5.2531,-18.7602 -17.4056,-35.6282 -35.4228,-46.454 -37.4415,-22.4971 -86.0313,-10.3823 -108.5284,27.0592 -22.4971,37.4414 -10.3823,86.0312 27.0592,108.5283 37.4414,22.4971 86.0312,10.3823 108.5283,-27.0592 4.6559,-7.7486 7.8293,-15.9748 9.6027,-24.3483 l -30.7185,-22.551 29.4795,-15.175 z"
         id="path92"
         inkscape:connector-curvature="0"
         style="clip-rule:evenodd" /></clipPath><clipPath
       clipPathUnits="userSpaceOnUse"
       id="clipPath96"><path
         d="m 0,0 1622,0 0,1067 L 0,1067 0,0 Z"
         id="path98"
         inkscape:connector-curvature="0" /></clipPath><clipPath
       clipPathUnits="userSpaceOnUse"
       id="clipPath106"><path
         d="m 0,1067 1622,0 L 1622,0 0,0 0,1067 Z"
         id="path108"
         inkscape:connector-curvature="0"
         style="clip-rule:evenodd" /></clipPath><clipPath
       clipPathUnits="userSpaceOnUse"
       id="clipPath112"><path
         d="m 925.6328,802.3869 c -2.2713,-0.1987 -5.3624,1.3427 -9.2733,4.6244 -3.9109,3.2816 -5.9656,6.058 -6.1643,8.3294 -0.2098,2.3975 1.3261,5.5516 4.6077,9.4625 3.2817,3.9109 6.0581,5.9657 8.3294,6.1644 2.3975,0.2097 5.5517,-1.3262 9.4626,-4.6078 3.9109,-3.2816 5.9712,-6.1212 6.1809,-8.5187 0.2098,-2.3975 -1.2974,-5.5173 -4.5214,-9.3596 -3.2241,-3.8423 -6.0979,-5.8738 -8.6216,-6.0946 l 0,0 z"
         id="path114"
         inkscape:connector-curvature="0"
         style="clip-rule:evenodd" /></clipPath><clipPath
       clipPathUnits="userSpaceOnUse"
       id="clipPath118"><path
         d="m 0,0 1622,0 0,1067 L 0,1067 0,0 Z"
         id="path120"
         inkscape:connector-curvature="0" /></clipPath><clipPath
       clipPathUnits="userSpaceOnUse"
       id="clipPath128"><path
         d="m 0,1067 1622,0 L 1622,0 0,0 0,1067 Z"
         id="path130"
         inkscape:connector-curvature="0"
         style="clip-rule:evenodd" /></clipPath><clipPath
       clipPathUnits="userSpaceOnUse"
       id="clipPath134"><path
         d="m 275.5101,452.9108 -10.6168,75.5426 30.6309,4.3049 10.6169,-75.5426 -30.631,-4.3049 z m 145.4275,88.8006 -26.6986,-3.7523 4.7703,-33.9424 c 0.4848,-3.4494 1.8977,-5.9945 4.2389,-7.6354 2.3412,-1.6408 5.3054,-2.2091 8.8928,-1.7049 4.0014,0.5623 7.176,1.501 9.5238,2.8159 l 1.2139,-25.1559 c -3.0982,-1.9832 -7.7517,-3.4111 -13.9607,-4.2837 -10.2104,-1.4349 -18.9846,0.4274 -26.3228,5.587 -7.3382,5.1596 -11.6665,12.4306 -12.9851,21.8131 l -5.3812,38.2887 -15.9363,-2.2397 -3.4905,24.8359 16.5573,2.327 -2.5597,18.213 27.4336,15.0414 4.1013,-29.1822 29.3892,4.1304 1.2138,-25.1559 z m 101.9862,-58.9025 c -4.2773,-0.6012 -8.306,-0.2176 -12.0863,1.1506 -3.7802,1.3682 -6.8688,3.5723 -9.2659,6.6123 -5.496,-7.9483 -13.763,-12.698 -24.8012,-14.2494 -9.7965,-1.3768 -18.2952,0.278 -25.4966,4.9644 -7.2013,4.6864 -11.4612,11.7208 -12.7798,21.1033 -1.1829,8.4166 0.7746,15.762 5.8727,22.0363 5.0981,6.2742 12.3395,10.5632 21.7242,12.8671 l 18.3652,4.4805 -0.4654,3.3115 c -0.4266,3.0355 -1.9339,5.2508 -4.522,6.6459 -2.588,1.395 -6.4345,1.7338 -11.5397,1.0163 -5.2432,-0.7369 -10.261,-2.0752 -15.0537,-4.0151 -4.7927,-1.9399 -8.6497,-4.0297 -11.5711,-6.2694 l -5.5344,22.8602 c 3.178,2.4165 7.5772,4.6528 13.1977,6.7091 5.6206,2.0562 11.3973,3.5012 17.3304,4.3351 13.2459,1.8616 24.0891,0.0438 32.53,-5.4533 8.4409,-5.4971 13.5048,-14.2476 15.1919,-26.2517 l 3.7813,-26.9056 c 1.1441,-8.1407 5.3811,-12.2587 12.7111,-12.3541 l -7.5884,-22.594 z m -34.9348,39.8337 -12.4504,-3.0162 c -4.0811,-0.9956 -6.962,-2.7724 -8.6428,-5.3302 -1.6807,-2.5578 -2.298,-5.4234 -1.852,-8.5969 0.3684,-2.6216 1.6052,-4.6638 3.7103,-6.1267 2.1051,-1.463 4.6063,-1.9908 7.5039,-1.5836 3.8634,0.5429 7.1237,2.373 9.7811,5.4902 2.6574,3.1172 3.7146,6.6074 3.1716,10.4708 l -1.2217,8.6926 z M 546.4614,605.6 c -2.4836,-0.3491 -5.9678,1.1663 -10.4529,4.546 -4.485,3.3797 -6.902,6.3113 -7.2511,8.7949 -0.3684,2.6216 1.1372,6.1748 4.5169,10.6599 3.3798,4.485 6.3114,6.902 8.795,7.2511 2.6216,0.3684 6.1748,-1.1372 10.6598,-4.5169 4.4851,-3.3797 6.9118,-6.3803 7.2802,-9.0019 0.3685,-2.6216 -1.1075,-6.1355 -4.4279,-10.5419 -3.3205,-4.4063 -6.3604,-6.8034 -9.12,-7.1912 l 0,0 z m 2.1329,-116.2286 -13.1765,93.7556 30.631,4.3049 13.1765,-93.7556 -30.631,-4.3049 z m 99.4656,-36.4629 c -13.3838,-1.881 -24.7984,-0.003 -34.2439,5.6345 -9.4455,5.6373 -14.876,13.4921 -16.2916,23.5645 -0.9114,6.4849 -0.006,12.3105 2.7146,17.4768 2.7212,5.1664 6.6462,9.0245 11.7753,11.5745 l -12.2748,9.2497 c 0.0261,2.8177 0.9243,5.6876 2.6945,8.6098 1.7702,2.9221 3.8001,5.2476 6.0898,6.9764 -4.2318,2.0786 -7.8555,5.0869 -10.8713,9.0248 -3.0158,3.938 -4.8823,8.4595 -5.5998,13.5647 -1.4544,10.3484 0.8121,19.2497 6.7996,26.7042 5.9875,7.4546 14.9142,12.0156 26.7803,13.6833 3.1735,0.446 5.4992,0.6673 6.977,0.6639 1.4779,-0.003 3.576,-0.1657 6.2946,-0.4872 2.7185,-0.3214 5.132,-0.4747 7.2404,-0.4598 2.1085,0.015 4.5425,0.2163 7.302,0.6042 6.209,0.8726 11.4942,2.8113 15.8558,5.8163 l 5.4147,-23.5103 c -0.6123,-0.6488 -1.7862,-1.3063 -3.5217,-1.9723 -1.7356,-0.666 -3.5002,-1.1251 -5.2939,-1.3772 1.3753,-1.7765 2.3053,-4.3895 2.7901,-7.8389 1.2411,-8.8306 -0.5699,-16.7182 -5.4331,-23.663 -4.8632,-6.9447 -11.7897,-11.4709 -20.78,-13.5786 -4.4152,-0.6205 -6.4483,-2.1726 -6.0993,-4.6562 0.1939,-1.3798 1.1575,-2.2293 2.8908,-2.5485 l 15.8357,-3.0508 c 9.8285,-1.8548 17.5058,-5.1728 23.032,-9.9539 5.5262,-4.7811 8.8807,-11.3799 10.0636,-19.7966 1.3768,-9.7964 -1.6233,-18.4842 -9.0002,-26.0637 -7.377,-7.5795 -17.7573,-12.3096 -31.1412,-14.1906 l 0,0 z m 55.7522,55.3226 -15.7362,111.9686 30.631,4.3049 15.7362,-111.9686 -30.631,-4.3049 z"
         id="path136"
         inkscape:connector-curvature="0"
         style="clip-rule:evenodd" /></clipPath><clipPath
       clipPathUnits="userSpaceOnUse"
       id="clipPath140"><path
         d="m 0,0 1622,0 0,1067 L 0,1067 0,0 Z"
         id="path142"
         inkscape:connector-curvature="0" /></clipPath><clipPath
       clipPathUnits="userSpaceOnUse"
       id="clipPath150"><path
         d="m 0,1067 1622,0 L 1622,0 0,0 0,1067 Z"
         id="path152"
         inkscape:connector-curvature="0"
         style="clip-rule:evenodd" /></clipPath><clipPath
       clipPathUnits="userSpaceOnUse"
       id="clipPath156"><path
         d="m 271.2974,436.0577 366.8771,-7.3167 -1.1423,-32.7107 -375.4189,20.9541 9.6841,19.0733 z"
         id="path158"
         inkscape:connector-curvature="0"
         style="clip-rule:evenodd" /></clipPath><clipPath
       clipPathUnits="userSpaceOnUse"
       id="clipPath162"><path
         d="m 0,0 1622,0 0,1067 L 0,1067 0,0 Z"
         id="path164"
         inkscape:connector-curvature="0" /></clipPath><clipPath
       clipPathUnits="userSpaceOnUse"
       id="clipPath172"><path
         d="m 0,1067 1622,0 L 1622,0 0,0 0,1067 Z"
         id="path174"
         inkscape:connector-curvature="0"
         style="clip-rule:evenodd" /></clipPath><clipPath
       clipPathUnits="userSpaceOnUse"
       id="clipPath178"><path
         d="M 241.7796,604.1304 544.5191,708.372 553.648,681.8596 255.622,587.4978 241.7796,604.1304 Z"
         id="path180"
         inkscape:connector-curvature="0"
         style="clip-rule:evenodd" /></clipPath><clipPath
       clipPathUnits="userSpaceOnUse"
       id="clipPath184"><path
         d="m 0,0 1622,0 0,1067 L 0,1067 0,0 Z"
         id="path186"
         inkscape:connector-curvature="0" /></clipPath><clipPath
       clipPathUnits="userSpaceOnUse"
       id="clipPath194"><path
         d="m 0,1067 1622,0 L 1622,0 0,0 0,1067 Z"
         id="path196"
         inkscape:connector-curvature="0"
         style="clip-rule:evenodd" /></clipPath><clipPath
       clipPathUnits="userSpaceOnUse"
       id="clipPath200"><path
         d="m 225.4877,484.8944 c -5.2531,-18.7603 -17.4056,-35.6282 -35.4228,-46.454 -37.4414,-22.4971 -86.0312,-10.3823 -108.52833,27.0591 -22.4971,37.4415 -10.3823,86.0313 27.05913,108.5284 37.4415,22.4971 86.0313,10.3823 108.5284,-27.0592 4.6558,-7.7486 7.8293,-15.9748 9.6026,-24.3483 l -30.7184,-22.551 29.4794,-15.175 z"
         id="path202"
         inkscape:connector-curvature="0"
         style="clip-rule:evenodd" /></clipPath><clipPath
       clipPathUnits="userSpaceOnUse"
       id="clipPath206"><path
         d="m 0,0 1622,0 0,1067 L 0,1067 0,0 Z"
         id="path208"
         inkscape:connector-curvature="0" /></clipPath><clipPath
       clipPathUnits="userSpaceOnUse"
       id="clipPath216"><path
         d="m 0,1067 1622,0 L 1622,0 0,0 0,1067 Z"
         id="path218"
         inkscape:connector-curvature="0"
         style="clip-rule:evenodd" /></clipPath><clipPath
       clipPathUnits="userSpaceOnUse"
       id="clipPath222"><path
         d="m 175.3028,521.3186 c -2.2714,-0.1987 -5.3624,1.3427 -9.2733,4.6244 -3.9109,3.2816 -5.9657,6.058 -6.1644,8.3293 -0.2098,2.3976 1.3262,5.5517 4.6078,9.4626 3.2816,3.9109 6.058,5.9657 8.3294,6.1644 2.3975,0.2097 5.5516,-1.3262 9.4625,-4.6078 3.9109,-3.2816 5.9712,-6.1212 6.181,-8.5187 0.2097,-2.3975 -1.2974,-5.5173 -4.5215,-9.3596 -3.224,-3.8423 -6.0979,-5.8738 -8.6215,-6.0946 l 0,0 z"
         id="path224"
         inkscape:connector-curvature="0"
         style="clip-rule:evenodd" /></clipPath><clipPath
       clipPathUnits="userSpaceOnUse"
       id="clipPath228"><path
         d="m 0,0 1622,0 0,1067 L 0,1067 0,0 Z"
         id="path230"
         inkscape:connector-curvature="0" /></clipPath><clipPath
       clipPathUnits="userSpaceOnUse"
       id="clipPath238"><path
         d="m 0,1067 1622,0 L 1622,0 0,0 0,1067 Z"
         id="path240"
         inkscape:connector-curvature="0"
         style="clip-rule:evenodd" /></clipPath><clipPath
       clipPathUnits="userSpaceOnUse"
       id="clipPath244"><path
         d="m 257.1334,561.3438 c -0.4832,3.051 0.2993,5.8453 4.1816,8.9927 3.8823,3.1473 10.0662,-0.7383 12.9566,-0.2805 3.0509,0.4833 8.2757,5.9759 12.5977,4.3279 4.322,-1.648 6.1515,-4.2286 6.6347,-7.2796 0.4832,-3.0509 -12.233,-20.4555 -15.4445,-20.9642 -2.8904,-0.4578 -20.4683,12.3133 -20.9261,15.2037 z"
         id="path246"
         inkscape:connector-curvature="0"
         style="clip-rule:evenodd" /></clipPath><clipPath
       clipPathUnits="userSpaceOnUse"
       id="clipPath250"><path
         d="m 0,0 1622,0 0,1067 L 0,1067 0,0 Z"
         id="path252"
         inkscape:connector-curvature="0" /></clipPath><clipPath
       clipPathUnits="userSpaceOnUse"
       id="clipPath260"><path
         d="m 0,1067 1622,0 L 1622,0 0,0 0,1067 Z"
         id="path262"
         inkscape:connector-curvature="0"
         style="clip-rule:evenodd" /></clipPath><clipPath
       clipPathUnits="userSpaceOnUse"
       id="clipPath266"><path
         d="m 1014.958,130.0706 366.877,-7.3167 -1.143,-32.71067 -375.419,20.95407 9.685,19.0733 z"
         id="path268"
         inkscape:connector-curvature="0"
         style="clip-rule:evenodd" /></clipPath><clipPath
       clipPathUnits="userSpaceOnUse"
       id="clipPath272"><path
         d="m 0,0 1622,0 0,1067 L 0,1067 0,0 Z"
         id="path274"
         inkscape:connector-curvature="0" /></clipPath><clipPath
       clipPathUnits="userSpaceOnUse"
       id="clipPath282"><path
         d="m 0,1067 1622,0 L 1622,0 0,0 0,1067 Z"
         id="path284"
         inkscape:connector-curvature="0"
         style="clip-rule:evenodd" /></clipPath><clipPath
       clipPathUnits="userSpaceOnUse"
       id="clipPath288"><path
         d="m 985.4398,298.1433 302.7392,104.2416 9.129,-26.5124 -298.0259,-94.3618 -13.8423,16.6326 z"
         id="path290"
         inkscape:connector-curvature="0"
         style="clip-rule:evenodd" /></clipPath><clipPath
       clipPathUnits="userSpaceOnUse"
       id="clipPath294"><path
         d="m 0,0 1622,0 0,1067 L 0,1067 0,0 Z"
         id="path296"
         inkscape:connector-curvature="0" /></clipPath><clipPath
       clipPathUnits="userSpaceOnUse"
       id="clipPath304"><path
         d="m 0,1067 1622,0 L 1622,0 0,0 0,1067 Z"
         id="path306"
         inkscape:connector-curvature="0"
         style="clip-rule:evenodd" /></clipPath><clipPath
       clipPathUnits="userSpaceOnUse"
       id="clipPath310"><path
         d="m 969.1326,178.8531 c -5.2613,-18.7386 -17.4077,-35.5844 -35.4076,-46.3998 -37.4414,-22.4971 -86.0312,-10.3823 -108.5283,27.0591 -22.4971,37.4415 -10.3823,86.0313 27.0591,108.5284 37.4415,22.4971 86.0313,10.3823 108.5284,-27.0592 4.199,-6.9883 7.1922,-14.3649 9.0401,-21.8879 l -31.6039,-23.4351 30.9122,-16.8055 z"
         id="path312"
         inkscape:connector-curvature="0"
         style="clip-rule:evenodd" /></clipPath><clipPath
       clipPathUnits="userSpaceOnUse"
       id="clipPath316"><path
         d="m 0,0 1622,0 0,1067 L 0,1067 0,0 Z"
         id="path318"
         inkscape:connector-curvature="0" /></clipPath><clipPath
       clipPathUnits="userSpaceOnUse"
       id="clipPath326"><path
         d="m 0,1067 1622,0 L 1622,0 0,0 0,1067 Z"
         id="path328"
         inkscape:connector-curvature="0"
         style="clip-rule:evenodd" /></clipPath><clipPath
       clipPathUnits="userSpaceOnUse"
       id="clipPath332"><path
         d="m 1000.794,255.3567 c -0.484,3.051 0.299,5.8453 4.181,8.9927 3.882,3.1473 10.066,-0.7383 12.957,-0.2805 3.051,0.4833 8.275,5.9759 12.597,4.3279 4.322,-1.648 6.152,-4.2286 6.635,-7.2796 0.483,-3.0509 -12.233,-20.4555 -15.444,-20.9642 -2.891,-0.4578 -20.469,12.3133 -20.926,15.2037 z"
         id="path334"
         inkscape:connector-curvature="0"
         style="clip-rule:evenodd" /></clipPath><clipPath
       clipPathUnits="userSpaceOnUse"
       id="clipPath338"><path
         d="m 0,0 1622,0 0,1067 L 0,1067 0,0 Z"
         id="path340"
         inkscape:connector-curvature="0" /></clipPath><clipPath
       clipPathUnits="userSpaceOnUse"
       id="clipPath348"><path
         d="m 0,1067 1622,0 L 1622,0 0,0 0,1067 Z"
         id="path350"
         inkscape:connector-curvature="0"
         style="clip-rule:evenodd" /></clipPath><clipPath
       clipPathUnits="userSpaceOnUse"
       id="clipPath354"><path
         d="m 1007.463,842.4121 c -0.483,3.051 0.3,5.8454 4.182,8.9927 3.882,3.1473 10.066,-0.7382 12.957,-0.2805 3.051,0.4833 8.275,5.9759 12.597,4.3279 4.322,-1.648 6.152,-4.2286 6.635,-7.2796 0.483,-3.0509 -12.233,-20.4555 -15.444,-20.9642 -2.891,-0.4578 -20.469,12.3133 -20.927,15.2037 z"
         id="path356"
         inkscape:connector-curvature="0"
         style="clip-rule:evenodd" /></clipPath><clipPath
       clipPathUnits="userSpaceOnUse"
       id="clipPath360"><path
         d="m 0,0 1622,0 0,1067 L 0,1067 0,0 Z"
         id="path362"
         inkscape:connector-curvature="0" /></clipPath><clipPath
       clipPathUnits="userSpaceOnUse"
       id="clipPath370"><path
         d="m 0,1067 1622,0 L 1622,0 0,0 0,1067 Z"
         id="path372"
         inkscape:connector-curvature="0"
         style="clip-rule:evenodd" /></clipPath><clipPath
       clipPathUnits="userSpaceOnUse"
       id="clipPath376"><path
         d="m 1047.071,149.9807 -24.063,-3.3819 -11.382,80.9841 24.064,3.3819 11.381,-80.9841 z m 45.208,113.652 23.518,7.2579 3.518,-25.0324 28.909,4.0628 2.814,-20.0259 -28.908,-4.0628 4.199,-29.8774 c 0.711,-5.0603 2.167,-8.973 4.367,-11.738 2.2,-2.765 5.992,-3.7691 11.375,-3.0126 2.584,0.3632 5.215,0.9799 7.892,1.8503 2.678,0.8704 5.086,1.8951 7.226,3.0742 l 6.025,-18.2573 c -2.741,-1.5929 -5.827,-3.0697 -9.259,-4.4303 -3.432,-1.3607 -7.732,-2.4042 -12.9,-3.1305 -6.568,-0.923 -12.13,-0.7989 -16.686,0.3723 -4.556,1.1712 -8.35,3.1633 -11.38,5.9763 -3.03,2.8131 -5.375,6.4086 -7.033,10.7869 -1.658,4.3782 -2.873,9.3128 -3.645,14.8038 l -10.032,71.3827 z m 117.526,-74.5559 c 2.368,0.3329 4.622,0.7045 6.76,1.1148 2.138,0.4103 3.838,0.8139 5.1,1.2108 l -2.565,18.2494 c -0.999,0.0792 -2.483,0.0902 -4.451,0.0332 -1.968,-0.0571 -3.76,-0.1991 -5.375,-0.426 -2.261,-0.3178 -4.368,-0.7512 -6.322,-1.3003 -1.954,-0.5491 -3.632,-1.3064 -5.034,-2.2719 -1.401,-0.9655 -2.442,-2.1548 -3.121,-3.5679 -0.68,-1.413 -0.884,-3.0885 -0.611,-5.0265 0.529,-3.7683 2.161,-6.2014 4.896,-7.2993 2.734,-1.0979 6.308,-1.3367 10.723,-0.7163 l 0,0 z m -11.834,70.1413 c 7.106,0.9987 13.141,1.0235 18.105,0.0742 4.964,-0.9492 9.085,-2.7306 12.362,-5.3443 3.277,-2.6137 5.81,-5.9906 7.6,-10.1308 1.789,-4.1402 3.055,-8.8481 3.796,-14.1238 l 7.036,-50.0647 c -3.339,-1.2379 -8.005,-2.7995 -13.999,-4.6848 -5.993,-1.8854 -13.35,-3.4408 -22.071,-4.6665 -5.491,-0.7717 -10.539,-0.987 -15.143,-0.646 -4.604,0.341 -8.677,1.3881 -12.217,3.1414 -3.54,1.7532 -6.421,4.2852 -8.643,7.5961 -2.222,3.3109 -3.696,7.5503 -4.422,12.7183 -0.697,4.9527 -0.291,9.2916 1.217,13.0168 1.507,3.7253 3.786,6.8453 6.837,9.36 3.05,2.5148 6.664,4.5323 10.842,6.0528 4.178,1.5204 8.582,2.6059 13.211,3.2566 3.123,0.4388 5.914,0.6938 8.374,0.7651 2.461,0.0713 4.475,-0.002 6.043,-0.2213 l -0.318,2.261 c -0.575,4.0914 -2.275,7.2011 -5.099,9.3295 -2.825,2.1283 -7.305,2.7612 -13.442,1.8987 -4.092,-0.575 -8.087,-1.4385 -11.988,-2.5906 -3.9,-1.152 -7.228,-2.4706 -9.984,-3.9558 l -5.792,18.9486 c 1.339,0.6274 3.024,1.3309 5.056,2.1104 2.031,0.7796 4.258,1.5318 6.682,2.2567 2.423,0.7248 4.989,1.4148 7.696,2.0698 2.708,0.655 5.461,1.1792 8.261,1.5726 l 0,0 z m 95.105,-75.5659 -24.063,-3.3819 -11.939,84.9486 24.064,3.3819 11.938,-84.9486 z m -13.127,109.8143 c 0.62,-4.4143 -0.318,-8.087 -2.816,-11.0182 -2.498,-2.9311 -5.684,-4.6691 -9.56,-5.2138 -3.876,-0.5447 -7.419,0.2475 -10.627,2.3766 -3.209,2.1292 -5.124,5.4009 -5.744,9.8153 -0.621,4.4143 0.318,8.087 2.816,11.0182 2.497,2.9311 5.684,4.669 9.56,5.2138 3.876,0.5447 7.418,-0.2475 10.627,-2.3767 3.209,-2.1292 5.123,-5.4009 5.744,-9.8152 l 0,0 z m 49.893,-58.5343 c 1.891,-13.4584 8.274,-19.4233 19.148,-17.895 2.476,0.348 4.746,0.9963 6.808,1.9449 2.063,0.9487 3.787,1.9596 5.174,3.0327 l -5.402,38.4369 c -1.215,0.0489 -2.641,0.0406 -4.279,-0.0249 -1.637,-0.0655 -3.533,-0.2495 -5.686,-0.5522 -6.353,-0.8927 -10.795,-3.658 -13.327,-8.2958 -2.532,-4.6378 -3.344,-10.1866 -2.436,-16.6466 l 0,0 z m 57.667,-27.1389 c 1.952,-13.889 -0.125,-24.6935 -6.232,-32.4138 -6.106,-7.7203 -16.534,-12.6169 -31.285,-14.6899 -5.168,-0.7263 -10.4,-0.995 -15.697,-0.8062 -5.296,0.1889 -10.257,0.7268 -14.884,1.6137 l 1.362,20.7775 c 3.98,-0.9777 8.103,-1.6059 12.37,-1.8847 4.266,-0.2788 9.037,-0.0474 14.312,0.694 6.891,0.9684 11.551,3.1604 13.981,6.5761 2.429,3.4157 3.311,7.4921 2.645,12.2294 l -0.431,3.0685 c -2.418,-1.5475 -4.958,-2.8102 -7.62,-3.7882 -2.662,-0.9781 -5.608,-1.694 -8.838,-2.148 -11.736,-1.6493 -21.214,0.5594 -28.435,6.6263 -7.22,6.0669 -11.708,15.3448 -13.463,27.8342 -0.878,6.2447 -0.707,12.0602 0.512,17.4467 1.219,5.3865 3.429,10.1711 6.629,14.3538 3.2,4.1827 7.352,7.6482 12.455,10.3966 5.103,2.7485 11.047,4.5993 17.83,5.5526 2.907,0.4085 5.913,0.6938 9.02,0.8559 3.106,0.1621 6.197,0.2397 9.272,0.2327 3.075,-0.007 6.027,-0.1137 8.856,-0.32 2.828,-0.2063 5.365,-0.4811 7.609,-0.8245 l 10.032,-71.3827 z m 48.171,-4.0994 -24.063,-3.3819 -11.939,84.9486 24.064,3.3819 11.938,-84.9486 z m -7.346,116.7203 -23.492,-26.1934 -12.367,8.308 19.256,29.3859 16.603,-11.5005 z"
         id="path378"
         inkscape:connector-curvature="0"
         style="clip-rule:evenodd" /></clipPath><clipPath
       clipPathUnits="userSpaceOnUse"
       id="clipPath382"><path
         d="m 0,0 1622,0 0,1067 L 0,1067 0,0 Z"
         id="path384"
         inkscape:connector-curvature="0" /></clipPath><clipPath
       clipPathUnits="userSpaceOnUse"
       id="clipPath392"><path
         d="m 0,1067 1622,0 L 1622,0 0,0 0,1067 Z"
         id="path394"
         inkscape:connector-curvature="0"
         style="clip-rule:evenodd" /></clipPath><clipPath
       clipPathUnits="userSpaceOnUse"
       id="clipPath398"><path
         d="m 919.9928,218 c 6.6275,0 12,5.3726 12,12 0,6.6274 -5.3725,12 -12,12 -6.6274,0 -12,-5.3726 -12,-12 0,-6.6274 5.3726,-12 12,-12 z"
         id="path400"
         inkscape:connector-curvature="0"
         style="clip-rule:evenodd" /></clipPath><clipPath
       clipPathUnits="userSpaceOnUse"
       id="clipPath404"><path
         d="m 0,0 1622,0 0,1067 L 0,1067 0,0 Z"
         id="path406"
         inkscape:connector-curvature="0" /></clipPath><clipPath
       clipPathUnits="userSpaceOnUse"
       id="clipPath414"><path
         d="m 0,1067 1622,0 L 1622,0 0,0 0,1067 Z"
         id="path416"
         inkscape:connector-curvature="0"
         style="clip-rule:evenodd" /></clipPath><clipPath
       clipPathUnits="userSpaceOnUse"
       id="clipPath420"><path
         d="m 642.5,470 c 13.531,0 24.5,8.2842 24.5,18.5033 0,10.2191 -11.969,18.5033 -25.5,18.5033 -1.9801,0 -9.4875,4.6738 -18.11,7.9934 3.3697,-6.2414 6.0717,-10.8283 6.0717,-10.8283 C 623.39,500.531 618,495.1034 618,488.5033 618,478.2842 628.969,470 642.5,470 Z"
         id="path422"
         inkscape:connector-curvature="0"
         style="clip-rule:evenodd" /></clipPath><clipPath
       clipPathUnits="userSpaceOnUse"
       id="clipPath426"><path
         d="m 0,0 1622,0 0,1067 L 0,1067 0,0 Z"
         id="path428"
         inkscape:connector-curvature="0" /></clipPath><clipPath
       clipPathUnits="userSpaceOnUse"
       id="clipPath436"><path
         d="m 0,1067 1622,0 L 1622,0 0,0 0,1067 Z"
         id="path438"
         inkscape:connector-curvature="0"
         style="clip-rule:evenodd" /></clipPath><clipPath
       clipPathUnits="userSpaceOnUse"
       id="clipPath442"><path
         d="m 629,548 c 9.9411,0 19.0068,6.5801 19.0068,14.6971 0,1.1319 0.6668,5.3431 0,9.2074 -1.6158,3.8075 0.9222,6.2887 5.9374,11.136 -10.9613,-1.7562 -15.8121,-1.543 -24.2192,-3.0858 C 616.5954,578.0603 611,570.8141 611,562.6971 611,554.5801 619.0589,548 629,548 Z"
         id="path444"
         inkscape:connector-curvature="0"
         style="clip-rule:evenodd" /></clipPath><clipPath
       clipPathUnits="userSpaceOnUse"
       id="clipPath448"><path
         d="m 0,0 1622,0 0,1067 L 0,1067 0,0 Z"
         id="path450"
         inkscape:connector-curvature="0" /></clipPath><clipPath
       clipPathUnits="userSpaceOnUse"
       id="clipPath458"><path
         d="m 0,1067 1622,0 L 1622,0 0,0 0,1067 Z"
         id="path460"
         inkscape:connector-curvature="0"
         style="clip-rule:evenodd" /></clipPath><clipPath
       clipPathUnits="userSpaceOnUse"
       id="clipPath464"><path
         d="m 484.2193,589.0549 c -2.977,0.9998 -5.8247,2.0887 -8.5431,3.2668 -2.7184,1.178 -5.4455,2.9221 -8.1812,5.2323 -2.132,-2.9943 -4.3422,-5.4323 -6.6306,-7.314 -2.2884,-1.8817 -4.7256,-3.7134 -7.3117,-5.4951 l -12.5813,9.2942 c 4.4355,2.7507 8.7042,6.4353 12.8063,11.0538 4.102,4.6186 7.5896,9.8243 10.4629,15.6175 4.3588,-4.7768 9.1115,-8.8244 14.2581,-12.1431 5.1467,-3.3188 10.2308,-5.6889 15.2527,-7.1105 l -9.5321,-12.4019 z m 233.297,64.0993 c -4.9548,-4.6191 -9.7355,-8.2331 -14.3424,-10.8419 -4.6069,-2.6088 -9.8952,-5.1033 -15.8652,-7.4834 l -12.8982,9.5353 c 5.9314,2.6548 12.2915,6.2456 19.0806,10.7722 6.789,4.5267 12.4956,9.7768 17.12,15.7505 l 6.9052,-17.7327 z"
         id="path466"
         inkscape:connector-curvature="0"
         style="clip-rule:evenodd" /></clipPath><clipPath
       clipPathUnits="userSpaceOnUse"
       id="clipPath470"><path
         d="m 0,0 1622,0 0,1067 L 0,1067 0,0 Z"
         id="path472"
         inkscape:connector-curvature="0" /></clipPath></defs><sodipodi:namedview
     pagecolor="#ffffff"
     bordercolor="#666666"
     borderopacity="1"
     objecttolerance="10"
     gridtolerance="10"
     guidetolerance="10"
     inkscape:pageopacity="0"
     inkscape:pageshadow="2"
     inkscape:window-width="1920"
     inkscape:window-height="1029"
     id="namedview4"
     showgrid="true"
     inkscape:zoom="0.35117139"
     inkscape:cx="468.72315"
     inkscape:cy="457.17243"
     inkscape:window-x="0"
     inkscape:window-y="0"
     inkscape:window-maximized="1"
     inkscape:current-layer="g10"
     showguides="true"
     inkscape:guide-bbox="true"
     fit-margin-top="0"
     fit-margin-left="0"
     fit-margin-right="0"
     fit-margin-bottom="0"><inkscape:grid
       type="xygrid"
       id="grid4602"
       originx="-87.784952"
       originy="-533.91477" /></sodipodi:namedview><g
     id="g10"
     inkscape:groupmode="layer"
     inkscape:label="itaigi-logos (副本)"
     transform="matrix(1.25,0,0,-1.25,-87.784951,796.74899)"><g
       id="g12" /><g
       id="g190"
       transform="matrix(1.3290842,0,0,1.3290842,-23.110909,-140.56231)"><g
         id="g192"
         clip-path="url(#clipPath194)"><g
           id="g198"
           clip-path="url(#clipPath200)"><g
             id="g204"
             clip-path="url(#clipPath206)"><path
               d="M 58.21148,582.6919 225.212,597.3026 239.873,429.726 72.87254,415.1153 58.21148,582.6919 Z"
               style="fill:#3b3a3c;fill-opacity:1;fill-rule:nonzero;stroke:none"
               id="path210"
               inkscape:connector-curvature="0" /></g></g></g></g><g
       id="g212"
       transform="matrix(1.4535889,0,0,1.4535889,-50.428352,-210.31201)"><g
         id="g214"
         clip-path="url(#clipPath216)"><g
           id="g220"
           clip-path="url(#clipPath222)"><g
             id="g226"
             clip-path="url(#clipPath228)"><path
               d="m 153.1898,553.2025 38.5426,3.3721 3.3721,-38.5427 -38.5426,-3.372 -3.3721,38.5426 z"
               style="fill:#ffffff;fill-opacity:1;fill-rule:nonzero;stroke:none"
               id="path232"
               inkscape:connector-curvature="0" /></g></g></g></g></g></svg>