<?xml version="1.0" encoding="utf-8"?>
<svg id="svg2" width="260" height="262.83426" viewBox="0 0 260 262.83426" xmlns="http://www.w3.org/2000/svg">
  <path d="M 46.582 230.528 C -8.132 184.039 -14.8 101.998 31.689 47.285 C 78.178 -7.429 160.219 -14.097 214.933 32.392 C 237.773 51.799 252.24 77.401 257.964 104.623 C 258.016 104.872 258.068 105.121 258.119 105.37 L 209.791 140.664 L 256.485 164.633 C 251.69 182.857 242.842 200.317 229.825 215.636 C 183.337 270.35 101.296 277.017 46.582 230.528 Z M 164.909 51.818 C 146.902 51.818 132.306 66.415 132.306 84.421 C 132.306 102.427 146.902 117.024 164.909 117.024 C 182.915 117.024 197.512 102.427 197.512 84.421 C 197.512 66.415 182.915 51.818 164.909 51.818 Z" style="vector-effect: non-scaling-stroke; stroke-width: 0; stroke: rgb(59, 58, 60); fill: rgb(59, 58, 60);"/>
</svg>