<?xml version="1.0" encoding="utf-8"?>
<svg width="1200px" height="630px" viewBox="0 0 1200 630" xmlns="http://www.w3.org/2000/svg">
  <title>Group</title>
  <desc>Created with Sketch.</desc>
  <g id="Page-1" stroke="none" stroke-width="1" fill="none" fill-rule="evenodd" transform="matrix(1.632347, 0, 0, 1.632347, 67.395622, 48.049881)">
    <g id="test" transform="translate(-70.000000, -358.000000)">
      <g id="Group" transform="translate(62.000000, 358.000000)">
        <g>
          <path d="M204.772694,224.34047 L204.772694,148.05547 L235.704694,148.05547 L235.704694,224.34047 L204.772694,224.34047 Z M361.143596,156.643724 L334.182596,156.643724 L334.182596,190.919724 C334.182596,194.403075 335.227585,197.120048 337.317596,199.070724 C339.407606,201.021401 342.263911,201.996724 345.886596,201.996724 C349.927283,201.996724 353.201583,201.509063 355.709596,200.533724 L353.410596,225.613724 C350.066579,227.146399 345.259627,227.912724 338.989596,227.912724 C328.678877,227.912724 320.249295,224.847422 313.700596,218.716724 C307.151896,212.586027 303.877596,204.783438 303.877596,195.308724 L303.877596,156.643724 L287.784596,156.643724 L287.784596,131.563724 L304.504596,131.563724 L304.504596,113.171724 L333.764596,102.094724 L333.764596,131.563724 L363.442596,131.563724 L361.143596,156.643724 Z M453.939596,229.166724 C449.620241,229.166724 445.684113,228.226234 442.131096,226.345224 C438.578078,224.464215 435.826272,221.851741 433.875596,218.507724 C427.326896,225.61376 418.479318,229.166724 407.332596,229.166724 C397.43988,229.166724 389.254128,226.345253 382.775096,220.702224 C376.296063,215.059196 373.056596,207.500438 373.056596,198.025724 C373.056596,189.526348 376.017399,182.524918 381.939096,177.021224 C387.860792,171.51753 395.628548,168.278063 405.242596,167.302724 L424.052596,165.421724 L424.052596,162.077724 C424.052596,159.012376 422.868274,156.6089 420.499596,154.867224 C418.130917,153.125549 414.368955,152.254724 409.213596,152.254724 C403.918903,152.254724 398.763621,152.881718 393.747596,154.135724 C388.731571,155.389731 384.621278,156.922382 381.416596,158.733724 L379.117596,135.325724 C382.600946,133.375048 387.268566,131.772731 393.120596,130.518724 C398.972625,129.264718 404.894232,128.637724 410.885596,128.637724 C424.261663,128.637724 434.746391,131.946858 442.340096,138.565224 C449.9338,145.183591 453.730596,154.553664 453.730596,166.675724 L453.730596,193.845724 C453.730596,202.066432 457.353226,206.734052 464.598596,207.848724 L453.939596,229.166724 Z M424.888596,184.858724 L412.139596,186.112724 C407.959575,186.530726 404.859439,187.889213 402.839096,190.188224 C400.818752,192.487236 399.808596,195.239042 399.808596,198.443724 C399.808596,201.091071 400.749086,203.285549 402.630096,205.027224 C404.511105,206.7689 406.914581,207.639724 409.840596,207.639724 C413.741949,207.639724 417.225247,206.281238 420.290596,203.564224 C423.355944,200.847211 424.888596,197.538077 424.888596,193.636724 L424.888596,184.858724 Z M494.337391,110.846414 C491.829379,110.846414 488.589911,108.860934 484.618891,104.889914 C480.647871,100.918894 478.662391,97.6794262 478.662391,95.1714137 C478.662391,92.5240671 480.647871,89.2149335 484.618891,85.2439137 C488.589911,81.2728938 491.829379,79.2874137 494.337391,79.2874137 C496.984738,79.2874137 500.293871,81.2728938 504.264891,85.2439137 C508.235911,89.2149335 510.221391,92.5240671 510.221391,95.1714137 C510.221391,97.8187602 508.270744,101.093061 504.369391,104.994414 C500.468039,108.895766 497.124072,110.846414 494.337391,110.846414 L494.337391,110.846414 Z M480.273596,226.240724 L480.273596,131.563724 L511.205596,131.563724 L511.205596,226.240724 L480.273596,226.240724 Z M573.696596,276.191724 C560.181195,276.191724 549.139139,272.743259 540.570096,265.846224 C532.001053,258.94919 527.716596,250.415108 527.716596,240.243724 C527.716596,233.695025 529.423412,228.052081 532.837096,223.314724 C536.250779,218.577367 540.674569,215.303067 546.108596,213.491724 L535.240596,202.623724 C535.658598,199.837044 536.947418,197.120071 539.107096,194.472724 C541.266773,191.825378 543.600583,189.805065 546.108596,188.411724 C542.207243,185.764378 539.037441,182.281079 536.599096,177.961724 C534.16075,173.642369 532.941596,168.905083 532.941596,163.749724 C532.941596,153.299672 536.424894,144.800424 543.391596,138.251724 C550.358297,131.703025 559.832869,128.428724 571.815596,128.428724 C575.020278,128.428724 577.354088,128.533223 578.817096,128.742224 C580.280103,128.951225 582.335249,129.404054 584.982596,130.100724 C587.629942,130.797394 589.998585,131.285056 592.088596,131.563724 C594.178606,131.842392 596.616915,131.981724 599.403596,131.981724 C605.673627,131.981724 611.177239,130.797403 615.914596,128.428724 L618.004596,152.463724 C617.307926,153.02106 616.053938,153.508722 614.242596,153.926724 C612.431253,154.344726 610.619938,154.553724 608.808596,154.553724 C609.923268,156.504401 610.480596,159.221374 610.480596,162.704724 C610.480596,171.622102 607.589458,179.18086 601.807096,185.381224 C596.024733,191.581589 588.535642,195.09972 579.339596,195.935724 C574.880907,195.935724 572.651596,197.189712 572.651596,199.697724 C572.651596,201.091065 573.487587,202.066388 575.159596,202.623724 L590.416596,207.848724 C599.89131,211.053407 607.032072,215.40753 611.839096,220.911224 C616.64612,226.414918 619.049596,233.416348 619.049596,241.915724 C619.049596,251.80844 614.869638,259.994192 606.509596,266.473224 C598.149554,272.952257 587.211997,276.191724 573.696596,276.191724 L573.696596,276.191724 Z M636.605596,229.166724 L636.605596,116.097724 L667.537596,116.097724 L667.537596,229.166724 L636.605596,229.166724 Z" id="itaigi" fill="#F25F62" transform="translate(436.155145, 177.739569) rotate(-8.000000) translate(-436.155145, -177.739569) "/>
          <path d="M208.808938,279.18086 L575.717873,273.689303 L575.717873,306.419897 L199.796332,298.580555 L208.808938,279.18086 Z" id="Rectangle-1" fill="#3B3A3C" transform="translate(387.757103, 290.054600) rotate(2.000000) translate(-387.757103, -290.054600) "/>
          <path d="M175.622074,51.9849664 L495.805565,51.9849664 L495.805565,80.0249673 L183.295239,72.2180615 L175.622074,51.9849664 Z" id="Rectangle-1" fill="#3B3A3C" transform="translate(335.713820, 66.004967) rotate(-19.000000) translate(-335.713820, -66.004967) "/>
          <g id="Oval-1-+-Path" transform="translate(86.832721, 202.809850) rotate(-5.000000) translate(-86.832721, -202.809850) translate(7.332721, 122.809850)">
            <path d="M154.007243,107.895643 C147.13906,126.126663 133.562685,141.871244 114.670515,151.085571 C75.4107841,170.233821 28.0617606,153.930245 8.91351065,114.670515 C-10.2347393,75.4107841 6.06883692,28.0617606 45.3285674,8.91351065 C84.5882979,-10.2347393 131.937321,6.06883692 151.085571,45.3285674 C155.048384,53.4535369 157.492792,61.9249715 158.529555,70.4212008 L125.962557,90.209061 L154.007243,107.895643 Z" id="Oval-1" fill="#3B3A3C"/>
            <path d="M107.18784,67.2361187 C104.907841,67.2361187 101.962888,65.4311471 98.3528905,61.8211498 C94.7428931,58.2111525 92.9379215,55.2661988 92.9379215,52.9862005 C92.9379215,50.5795356 94.7428931,47.5712496 98.3528905,43.9612523 C101.962888,40.3512549 104.907841,38.5462833 107.18784,38.5462833 C109.594505,38.5462833 112.602791,40.3512549 116.212788,43.9612523 C119.822785,47.5712496 121.627757,50.5795356 121.627757,52.9862005 C121.627757,55.3928654 119.854451,58.3694852 116.307787,61.9161493 C112.761123,65.4628133 109.721171,67.2361187 107.18784,67.2361187 L107.18784,67.2361187 Z" id="Path" fill="#FFFFFF"/>
          </g>
          <path d="M195.637329,144.718431 C195.637329,141.629429 196.84735,138.991868 201.174215,136.490634 C205.50108,133.9894 211.000956,138.794451 213.927378,138.794451 C217.01638,138.794451 223.03604,134.186817 227.047038,136.490634 C231.058037,138.794451 232.461295,141.629429 232.461295,144.718431 C232.461295,147.807432 217.178959,163.00848 213.927379,163.00848 C211.000956,163.00848 195.637329,147.644853 195.637329,144.718431 Z" id="Path" fill="#F62392" transform="translate(214.049312, 149.388811) rotate(-9.000000) translate(-214.049312, -149.388811) "/>
        </g>
        <path d="M580.5,239 C594.030976,239 605,230.715792 605,220.496703 C605,210.277614 593.030976,201.993405 579.5,201.993405 C577.519851,201.993405 570.012457,197.319556 561.390033,194 C564.759662,200.241446 567.461733,204.828301 567.461733,204.828301 C561.390033,208.468961 556,213.896604 556,220.496703 C556,230.715792 566.969024,239 580.5,239 Z" id="Oval-8" fill="#FFFFFF"/>
        <path d="M567,161 C576.941125,161 586.006824,154.419873 586.006824,146.302875 C586.006824,145.171034 586.673628,140.959774 586.006824,137.095505 C584.391031,133.288041 586.929005,130.806757 591.944249,125.959458 C580.982864,127.715713 576.132084,127.502505 567.725019,129.045276 C554.595356,130.939679 549,138.185877 549,146.302875 C549,154.419873 557.058875,161 567,161 Z" id="Oval-7" fill="#FFFFFF"/>
        <path d="M417.810272,106.420944 C415.001369,105.016493 412.332951,103.541841 409.804938,101.996944 C407.276926,100.452048 404.819172,98.345402 402.431605,95.6769442 C399.903592,98.345402 397.375617,100.452048 394.847605,101.996944 C392.319592,103.541841 389.651174,105.016493 386.842272,106.420944 L375.676938,95.4662776 C380.452073,93.3596004 385.192026,90.3049642 389.896938,86.3022776 C394.601851,82.2995909 398.780031,77.6298598 402.431605,72.2929442 C406.083179,77.6298598 410.226248,82.2995909 414.860938,86.3022776 C419.495628,90.3049642 424.20047,93.3596004 428.975605,95.4662776 L417.810272,106.420944 Z M657.757771,75.4140724 C652.208342,79.298673 646.971146,82.2120798 642.046028,84.1543801 C637.120909,86.0966804 631.536879,87.8308511 625.293771,89.3569442 L613.84813,78.1194058 C620.091238,76.3158412 626.889187,73.6452183 634.242181,70.107457 C641.595175,66.5696958 647.976924,62.1649022 653.387617,56.8929442 L657.757771,75.4140724 Z" id="i-tâigí" fill="#F25F62" transform="translate(516.717355, 81.656944) rotate(-8.000000) translate(-516.717355, -81.656944) "/>
      </g>
    </g>
  </g>
</svg>