<?xml version="1.0" encoding="utf-8"?>
<!-- Generator: Adobe Illustrator 26.0.1, SVG Export Plug-In . SVG Version: 6.00 Build 0)  -->
<svg version="1.1"
	 id="svg2" inkscape:version="0.91 r" sodipodi:docname="logo2.svg" xmlns:cc="http://creativecommons.org/ns#" xmlns:dc="http://purl.org/dc/elements/1.1/" xmlns:inkscape="http://www.inkscape.org/namespaces/inkscape" xmlns:rdf="http://www.w3.org/1999/02/22-rdf-syntax-ns#" xmlns:sketch="http://www.bohemiancoding.com/sketch/ns" xmlns:sodipodi="http://sodipodi.sourceforge.net/DTD/sodipodi-0.dtd" xmlns:svg="http://www.w3.org/2000/svg"
	 xmlns="http://www.w3.org/2000/svg" xmlns:xlink="http://www.w3.org/1999/xlink" x="0px" y="0px" viewBox="0 0 1024 1024"
	 style="enable-background:new 0 0 1024 1024;" xml:space="preserve">
<style type="text/css">
	.st0{fill-rule:evenodd;clip-rule:evenodd;fill:#F25F62;}
	.st1{fill-rule:evenodd;clip-rule:evenodd;fill:#3B3A3C;}
	.st2{fill-rule:evenodd;clip-rule:evenodd;fill:#FFFFFF;}
	.st3{fill-rule:evenodd;clip-rule:evenodd;fill:#F62392;}
</style>
<sodipodi:namedview  bordercolor="#666666" borderopacity="1" gridtolerance="10" guidetolerance="10" id="namedview27" inkscape:current-layer="svg2" inkscape:cx="278.35595" inkscape:cy="156.5" inkscape:pageopacity="0" inkscape:pageshadow="2" inkscape:window-height="1022" inkscape:window-maximized="1" inkscape:window-width="1920" inkscape:window-x="0" inkscape:window-y="0" inkscape:zoom="0.72030075" objecttolerance="10" pagecolor="#ffffff" showgrid="false">
	</sodipodi:namedview>
<desc  id="desc6">Created with Sketch.</desc>
<g id="test" transform="translate(-70,-358)" sketch:type="MSArtboardGroup">
	<g id="Group" transform="translate(62,358)" sketch:type="MSLayerGroup">
		<g id="g13" sketch:type="MSShapeGroup">
			
				<rect x="315.8" y="537.8" transform="matrix(0.9903 -0.1392 0.1392 0.9903 -79.7242 53.0806)" class="st0" width="47.7" height="117.6"/>
			<path class="st0" d="M535,593.8c-5.5,0.8-10.1-0.1-13.7-2.6c-3.6-2.5-5.8-6.5-6.5-11.8l-7.4-52.3l41.2-5.8l-1.9-38.8l-45.3,6.4
				l-6.3-45L452.7,467l3.9,28.1l-25.5,3.6l5.4,38.3l24.6-3.5l8.3,59c2,14.5,8.7,25.7,20,33.6s24.8,10.8,40.6,8.6
				c9.6-1.3,16.8-3.5,21.5-6.6l-1.9-38.8C546,591.4,541.1,592.9,535,593.8z"/>
			<path class="st0" d="M697.9,558.2l-5.8-41.5c-2.6-18.5-10.4-32-23.4-40.5c-13-8.5-29.7-11.3-50.2-8.4c-9.1,1.3-18.1,3.5-26.7,6.7
				c-8.7,3.2-15.5,6.6-20.4,10.3l8.5,35.3c4.5-3.5,10.5-6.7,17.8-9.7s15.1-5.1,23.2-6.2c7.9-1.1,13.8-0.6,17.8,1.6
				c4,2.2,6.3,5.6,7,10.2l0.7,5.1l-28.3,6.9c-14.5,3.6-25.6,10.2-33.5,19.8c-7.9,9.7-10.9,21-9.1,34c2,14.5,8.6,25.3,19.7,32.5
				c11.1,7.2,24.2,9.8,39.3,7.7c17-2.4,29.8-9.7,38.2-22c3.7,4.7,8.5,8.1,14.3,10.2c5.8,2.1,12,2.7,18.6,1.8h0l11.7-34.8
				C706.2,577.1,699.7,570.7,697.9,558.2z M648.9,580.2c-4.1,4.8-9.1,7.6-15.1,8.5c-4.5,0.6-8.3-0.2-11.6-2.4
				c-3.2-2.3-5.2-5.4-5.7-9.4c-0.7-4.9,0.3-9.3,2.9-13.3s7-6.7,13.3-8.2l19.2-4.7v0l1.9,13.4C654.6,570,653,575.4,648.9,580.2z"/>
			
				<rect x="972.4" y="396" transform="matrix(0.9903 -0.1392 0.1392 0.9903 -57.5522 143.353)" class="st0" width="47.7" height="174.4"/>
			<path class="st0" d="M742.1,422.7c4.3-0.6,8.9-4.3,14.1-11.1c5.1-6.8,7.4-12.2,6.8-16.3c-0.6-4-4.3-8.7-11.2-13.9
				c-6.9-5.2-12.4-7.5-16.4-7c-3.8,0.5-8.4,4.3-13.6,11.2c-5.2,6.9-7.5,12.4-7,16.4c0.5,3.8,4.3,8.4,11.2,13.6
				C732.9,420.9,738.3,423.2,742.1,422.7z"/>
			<path class="st0" d="M960.7,596.1c-1.8-13-7-23.2-15.5-30.5c-8.5-7.4-20.4-12.5-35.5-15.4l-24.4-4.7c-2.7-0.5-4.2-1.8-4.5-3.9
				c-0.5-3.8,2.6-6.2,9.4-7.2c13.9-3.3,24.5-10.2,32-20.9c7.5-10.7,10.3-22.9,8.4-36.5c-0.7-5.3-2.2-9.3-4.3-12.1
				c2.8-0.4,5.5-1.1,8.2-2.1c2.7-1,4.5-2,5.4-3l-8.4-36.3c-6.7,4.6-14.9,7.6-24.5,9c-4.3,0.6-8,0.9-11.3,0.9s-7-0.2-11.2-0.7
				c-4.2-0.5-7.4-0.7-9.7-0.8s-5.9,0.3-10.8,1c-18.3,2.6-32.1,9.6-41.3,21.1c-9.2,11.5-12.7,25.2-10.5,41.2c1.1,7.9,4,14.8,8.6,20.9
				s10.2,10.7,16.8,13.9c-3.5,2.7-6.7,6.3-9.4,10.8c-2.7,4.5-4.1,8.9-4.2,13.3l18.9,14.3c-7.9,3.9-14,9.9-18.2,17.8
				c-4.2,8-5.6,17-4.2,27c2.2,15.5,10.6,27.6,25.1,36.3c14.6,8.7,32.2,11.6,52.8,8.7l0,0c20.6-2.9,36.6-10.2,48-21.9
				C958.2,624.6,962.8,611.2,960.7,596.1z M841.6,488.9c0-12.5,8.6-23.7,28.9-26.6c13-2.4,20.4-2.1,37.4-4.8
				c-7.7,7.5-11.6,11.3-9.2,17.2c1,6,0,12.5,0,14.2c0,12.5-14,22.7-29.3,22.7S841.6,501.4,841.6,488.9z M890.2,631.8
				c-20.9,0-37.8-12.8-37.8-28.5c0-10.2,8.3-18.5,17.7-24.2c0,0-4.2-7.1-9.4-16.7c13.3,5.1,24.9,12.3,27.9,12.3
				c20.9,0,39.3,12.8,39.3,28.5S911.1,631.8,890.2,631.8z"/>
			
				<rect x="735" y="453.3" transform="matrix(0.9903 -0.1392 0.1392 0.9903 -65.8649 110.7335)" class="st0" width="47.7" height="146"/>
			<path id="Rectangle-1" inkscape:connector-curvature="0" class="st1" d="M317.8,684.2l565.8,11.3l-1.8,50.4l-579-32.3
				L317.8,684.2L317.8,684.2z"/>
			<path id="path17" inkscape:connector-curvature="0" class="st1" d="M272.2,425l466.9-160.8l14.1,40.9L293.6,450.6L272.2,425
				L272.2,425z"/>
			<g id="Oval-1-_x2B_-Path" transform="matrix(0.9961947,-0.08715574,0.08715574,0.9961947,0.66278308,130.04316)">
				<path id="Oval-1" inkscape:connector-curvature="0" class="st1" d="M203.8,498.5c-10.6,28.1-31.5,52.4-60.7,66.6
					C82.6,594.6,9.5,569.4-20,508.9s-4.4-133.6,56.2-163.1s133.6-4.4,163.1,56.2c6.1,12.5,9.9,25.6,11.5,38.7l-50.2,30.5
					L203.8,498.5L203.8,498.5z"/>
				<path id="Path" inkscape:connector-curvature="0" class="st2" d="M131.6,435.8c-3.5,0-8.1-2.8-13.6-8.4
					c-5.6-5.6-8.4-10.1-8.4-13.6c0-3.7,2.8-8.4,8.4-13.9c5.6-5.6,10.1-8.4,13.6-8.4c3.7,0,8.4,2.8,13.9,8.4
					c5.6,5.6,8.4,10.2,8.4,13.9c0,3.7-2.7,8.3-8.2,13.8S135.5,435.8,131.6,435.8L131.6,435.8z"/>
			</g>
			<path id="path22" inkscape:connector-curvature="0" class="st3" d="M295.9,490.9c-0.7-4.7,0.5-9,6.4-13.9c6-4.9,15.5,1.1,20,0.4
				c4.7-0.7,12.8-9.2,19.4-6.7c6.7,2.5,9.5,6.5,10.2,11.2c0.7,4.7-18.9,31.5-23.8,32.3C323.7,515.1,296.6,495.4,295.9,490.9z"/>
		</g>
		<path id="i-tâigí" inkscape:connector-curvature="0" sketch:type="MSShapeGroup" class="st0" d="M646.1,448.2
			c-4.6-1.5-9-3.2-13.2-5c-4.2-1.8-8.4-4.5-12.6-8.1c-3.3,4.6-6.7,8.4-10.2,11.3c-3.5,2.9-7.3,5.7-11.3,8.5l-19.4-14.3
			c6.8-4.2,13.4-9.9,19.7-17c6.3-7.1,11.7-15.2,16.1-24.1c6.7,7.4,14.1,13.6,22,18.7c7.9,5.1,15.8,8.8,23.5,11
			C660.8,429.1,646.1,448.2,646.1,448.2z M1005.9,349.4c-7.6,7.1-15,12.7-22.1,16.7c-7.1,4-15.3,7.9-24.5,11.5l-19.9-14.7
			c9.1-4.1,19-9.6,29.4-16.6c10.5-7,19.3-15.1,26.4-24.3L1005.9,349.4L1005.9,349.4z"/>
	</g>
</g>
</svg>
