<?xml version="1.0" encoding="UTF-8" standalone="no"?>
<svg
   xmlns:sketch="http://www.bohemiancoding.com/sketch/ns"
   xmlns:dc="http://purl.org/dc/elements/1.1/"
   xmlns:cc="http://creativecommons.org/ns#"
   xmlns:rdf="http://www.w3.org/1999/02/22-rdf-syntax-ns#"
   xmlns:svg="http://www.w3.org/2000/svg"
   xmlns="http://www.w3.org/2000/svg"
   xmlns:sodipodi="http://sodipodi.sourceforge.net/DTD/sodipodi-0.dtd"
   xmlns:inkscape="http://www.inkscape.org/namespaces/inkscape"
   width="665"
   height="665"
   viewBox="0 0 665 665"
   version="1.1"
   id="svg2"
   inkscape:version="0.91 r"
   sodipodi:docname="logo2.svg">
  <metadata
     id="metadata29">
    <rdf:RDF>
      <cc:Work
         rdf:about="">
        <dc:format>image/svg+xml</dc:format>
        <dc:type
           rdf:resource="http://purl.org/dc/dcmitype/StillImage" />
        <dc:title>Group</dc:title>
      </cc:Work>
    </rdf:RDF>
  </metadata>
  <sodipodi:namedview
     pagecolor="#ffffff"
     bordercolor="#666666"
     borderopacity="1"
     objecttolerance="10"
     gridtolerance="10"
     guidetolerance="10"
     inkscape:pageopacity="0"
     inkscape:pageshadow="2"
     inkscape:window-width="1920"
     inkscape:window-height="1022"
     id="namedview27"
     showgrid="false"
     inkscape:zoom="0.72030075"
     inkscape:cx="278.35595"
     inkscape:cy="156.5"
     inkscape:window-x="0"
     inkscape:window-y="0"
     inkscape:window-maximized="1"
     inkscape:current-layer="svg2" />
  <!-- Generator: Sketch 3.3.2 (12043) - http://www.bohemiancoding.com/sketch -->
  <title
     id="title4">Group</title>
  <desc
     id="desc6">Created with Sketch.</desc>
  <defs
     id="defs8" />
  <g
     id="Page-1"
     sketch:type="MSPage"
     style="fill:none;fill-rule:evenodd;stroke:none;stroke-width:1"
     transform="translate(0,168.74322)">
    <g
       id="test"
       sketch:type="MSArtboardGroup"
       transform="translate(-70,-358)">
      <g
         id="Group"
         sketch:type="MSLayerGroup"
         transform="translate(62,358)">
        <g
           sketch:type="MSShapeGroup"
           id="g13">
          <path
             d="m 204.77269,224.34047 0,-76.285 30.932,0 0,76.285 -30.932,0 z m 156.37091,-67.69675 -26.961,0 0,34.276 c 0,3.48335 1.04498,6.20033 3.135,8.151 2.09001,1.95068 4.94631,2.926 8.569,2.926 4.04068,0 7.31498,-0.48766 9.823,-1.463 l -2.299,25.08 c -3.34402,1.53268 -8.15097,2.299 -14.421,2.299 -10.31072,0 -18.7403,-3.0653 -25.289,-9.196 -6.5487,-6.13069 -9.823,-13.93328 -9.823,-23.408 l 0,-38.665 -16.093,0 0,-25.08 16.72,0 0,-18.392 29.26,-11.077 0,29.469 29.678,0 -2.299,25.08 z m 92.796,72.523 c -4.31936,0 -8.25549,-0.94049 -11.8085,-2.8215 -3.55302,-1.88101 -6.30483,-4.49348 -8.2555,-7.8375 -6.5487,7.10604 -15.39628,10.659 -26.543,10.659 -9.89272,0 -18.07847,-2.82147 -24.5575,-8.4645 -6.47904,-5.64302 -9.7185,-13.20178 -9.7185,-22.6765 0,-8.49937 2.9608,-15.5008 8.8825,-21.0045 5.92169,-5.50369 13.68945,-8.74316 23.3035,-9.7185 l 18.81,-1.881 0,-3.344 c 0,-3.06534 -1.18433,-5.46882 -3.553,-7.2105 -2.36868,-1.74167 -6.13064,-2.6125 -11.286,-2.6125 -5.2947,0 -10.44998,0.627 -15.466,1.881 -5.01603,1.25401 -9.12632,2.78666 -12.331,4.598 l -2.299,-23.408 c 3.48335,-1.95067 8.15097,-3.55299 14.003,-4.807 5.85202,-1.254 11.77363,-1.881 17.765,-1.881 13.37606,0 23.86079,3.30914 31.4545,9.9275 7.5937,6.61837 11.3905,15.98844 11.3905,28.1105 l 0,27.17 c 0,8.22071 3.62263,12.88833 10.868,14.003 l -10.659,21.318 z m -29.051,-44.308 -12.749,1.254 c -4.18003,0.41801 -7.28016,1.77649 -9.3005,4.0755 -2.02035,2.29902 -3.0305,5.05082 -3.0305,8.2555 0,2.64735 0.94049,4.84183 2.8215,6.5835 1.881,1.74168 4.28448,2.6125 7.2105,2.6125 3.90135,0 7.38465,-1.35848 10.45,-4.0755 3.06534,-2.71701 4.598,-6.02614 4.598,-9.9275 l 0,-8.778 z m 69.44879,-74.01231 c -2.50801,0 -5.74748,-1.98548 -9.7185,-5.9565 -3.97102,-3.97102 -5.9565,-7.210484 -5.9565,-9.718496 0,-2.647347 1.98548,-5.956481 5.9565,-9.9275 3.97102,-3.97102 7.21049,-5.9565 9.7185,-5.9565 2.64735,0 5.95648,1.98548 9.9275,5.9565 3.97102,3.971019 5.9565,7.280153 5.9565,9.9275 0,2.647346 -1.95065,5.921646 -5.852,9.822996 -3.90135,3.90136 -7.24532,5.852 -10.032,5.852 l 0,0 z m -14.06379,115.39431 0,-94.677 30.932,0 0,94.677 -30.932,0 z m 93.423,49.951 c -13.51541,0 -24.55746,-3.44846 -33.1265,-10.3455 -8.56905,-6.89703 -12.8535,-15.43111 -12.8535,-25.6025 0,-6.5487 1.70681,-12.19164 5.1205,-16.929 3.41368,-4.73735 7.83747,-8.01165 13.2715,-9.823 l -10.868,-10.868 c 0.418,-2.78668 1.70682,-5.50365 3.8665,-8.151 2.15967,-2.64734 4.49348,-4.66765 7.0015,-6.061 -3.90136,-2.64734 -7.07116,-6.13064 -9.5095,-10.45 -2.43835,-4.31935 -3.6575,-9.05664 -3.6575,-14.212 0,-10.45005 3.48329,-18.9493 10.45,-25.498 6.9667,-6.5487 16.44127,-9.823 28.424,-9.823 3.20468,0 5.53849,0.1045 7.0015,0.3135 1.463,0.209 3.51815,0.66183 6.1655,1.3585 2.64734,0.69667 5.01599,1.18434 7.106,1.463 2.09001,0.27867 4.52831,0.418 7.315,0.418 6.27003,0 11.77364,-1.18432 16.511,-3.553 l 2.09,24.035 c -0.69667,0.55734 -1.95066,1.045 -3.762,1.463 -1.81135,0.41801 -3.62266,0.627 -5.434,0.627 1.11467,1.95068 1.672,4.66765 1.672,8.151 0,8.91738 -2.89114,16.47614 -8.6735,22.6765 -5.78237,6.20037 -13.27146,9.7185 -22.4675,10.5545 -4.45869,0 -6.688,1.25399 -6.688,3.762 0,1.39334 0.83599,2.36867 2.508,2.926 l 15.257,5.225 c 9.47471,3.20469 16.61547,7.55881 21.4225,13.0625 4.80702,5.5037 7.2105,12.50513 7.2105,21.0045 0,9.89272 -4.17996,18.07847 -12.54,24.5575 -8.36005,6.47904 -19.2976,9.7185 -32.813,9.7185 l 0,0 z m 62.909,-47.025 0,-113.069 30.932,0 0,113.069 -30.932,0 z"
             id="itaigi"
             transform="matrix(0.99026807,-0.1391731,0.1391731,0.99026807,-20.491935,62.430813)"
             inkscape:connector-curvature="0"
             style="fill:#f25f62" />
          <path
             d="m 208.80894,279.18086 366.90893,-5.49156 0,32.7306 -375.92154,-7.83935 9.01261,-19.39969 z"
             id="Rectangle-1"
             transform="matrix(0.99939083,0.0348995,-0.0348995,0.99939083,10.358971,-13.355834)"
             inkscape:connector-curvature="0"
             style="fill:#3b3a3c" />
          <path
             d="m 175.62207,51.984966 320.18349,0 0,28.040001 -312.51032,-7.806905 -7.67317,-20.233096 z"
             id="path17"
             transform="matrix(0.94551858,-0.32556815,0.32556815,0.94551858,-3.1989482,112.89377)"
             inkscape:connector-curvature="0"
             style="fill:#3b3a3c" />
          <g
             id="Oval-1-+-Path"
             transform="matrix(0.9961947,-0.08715574,0.08715574,0.9961947,0.66278308,130.04316)">
            <path
               d="m 154.00724,107.89564 c -6.86818,18.23102 -20.44456,33.9756 -39.33673,43.18993 C 75.410784,170.23382 28.061761,153.93025 8.9135106,114.67051 -10.234739,75.410784 6.0688369,28.061761 45.328567,8.9135106 84.588298,-10.234739 131.93732,6.0688369 151.08557,45.328567 c 3.96281,8.12497 6.40722,16.596404 7.44398,25.092634 l -32.56699,19.78786 28.04468,17.686579 z"
               id="Oval-1"
               inkscape:connector-curvature="0"
               style="fill:#3b3a3c" />
            <path
               d="m 107.18784,67.236119 c -2.28,0 -5.22495,-1.804972 -8.83495,-5.414969 -3.609997,-3.609998 -5.414968,-6.554951 -5.414968,-8.834949 0,-2.406665 1.804971,-5.414951 5.414968,-9.024949 3.61,-3.609997 6.55495,-5.414969 8.83495,-5.414969 2.40666,0 5.41495,1.804972 9.02495,5.414969 3.60999,3.609998 5.41497,6.618284 5.41497,9.024949 0,2.406664 -1.77331,5.383284 -5.31997,8.929948 -3.54667,3.546664 -6.58662,5.31997 -9.11995,5.31997 l 0,0 z"
               id="Path"
               inkscape:connector-curvature="0"
               style="fill:#ffffff" />
          </g>
          <path
             d="m 195.63733,144.71843 c 0,-3.089 1.21002,-5.72656 5.53688,-8.2278 4.32687,-2.50123 9.82675,2.30382 12.75317,2.30382 3.089,0 9.10866,-4.60763 13.11966,-2.30382 4.011,2.30382 5.41425,5.1388 5.41425,8.2278 0,3.089 -15.28233,18.29005 -18.53391,18.29005 -2.92642,0 -18.29005,-15.36363 -18.29005,-18.29005 z"
             id="path22"
             transform="matrix(0.98768834,-0.15643447,0.15643447,0.98768834,-20.734257,35.323914)"
             inkscape:connector-curvature="0"
             style="fill:#f62392" />
        </g>
        <path
           d="m 580.5,239 c 13.53098,0 24.5,-8.28421 24.5,-18.5033 0,-10.21909 -11.96902,-18.5033 -25.5,-18.5033 -1.98015,0 -9.48754,-4.67384 -18.10997,-7.9934 3.36963,6.24145 6.0717,10.8283 6.0717,10.8283 C 561.39003,208.46896 556,213.8966 556,220.4967 556,230.71579 566.96902,239 580.5,239 Z"
           id="Oval-8"
           sketch:type="MSShapeGroup"
           inkscape:connector-curvature="0"
           style="fill:#ffffff" />
        <path
           d="m 567,161 c 9.94113,0 19.00682,-6.58013 19.00682,-14.69713 0,-1.13184 0.66681,-5.3431 0,-9.20737 -1.61579,-3.80746 0.92218,-6.28874 5.93743,-11.13604 -10.96139,1.75625 -15.81217,1.54305 -24.21923,3.08582 C 554.59536,130.93968 549,138.18588 549,146.30287 549,154.41987 557.05887,161 567,161 Z"
           id="Oval-7"
           sketch:type="MSShapeGroup"
           inkscape:connector-curvature="0"
           style="fill:#ffffff" />
        <path
           d="m 417.81027,106.42094 c -2.8089,-1.40445 -5.47732,-2.8791 -8.00533,-4.424 -2.52801,-1.54489 -4.98577,-3.651538 -7.37334,-6.319996 -2.52801,2.668458 -5.05598,4.775106 -7.584,6.319996 -2.52801,1.5449 -5.19643,3.01955 -8.00533,4.424 L 375.67694,95.466278 c 4.77513,-2.106678 9.51509,-5.161314 14.22,-9.164 4.70491,-4.002687 8.88309,-8.672418 12.53466,-14.009334 3.65158,5.336916 7.79465,10.006647 12.42934,14.009334 4.63469,4.002686 9.33953,7.057322 14.11466,9.164 l -11.16533,10.954662 z m 239.9475,-31.006868 c -5.54943,3.884601 -10.78662,6.798008 -15.71174,8.740308 -4.92512,1.9423 -10.50915,3.676471 -16.75226,5.202564 L 613.84813,78.119406 c 6.24311,-1.803565 13.04106,-4.474188 20.39405,-8.011949 7.353,-3.537761 13.73474,-7.942555 19.14544,-13.214513 l 4.37015,18.521128 z"
           id="i-tâigí"
           sketch:type="MSShapeGroup"
           transform="matrix(0.99026807,-0.1391731,0.1391731,0.99026807,-6.3357923,72.707836)"
           inkscape:connector-curvature="0"
           style="fill:#f25f62" />
      </g>
    </g>
  </g>
</svg>
