<svg xmlns="http://www.w3.org/2000/svg" viewBox="0 0 78.8 95.1"><defs><style>.cls-1{fill:#231f20;}</style></defs><title>Asset 5</title><g id="Layer_2" data-name="Layer 2"><g id="Layer_1-2" data-name="Layer 1"><path class="cls-1" d="M76.4,15.2H63.6V2.4A2.43,2.43,0,0,0,61.2,0H2.4A2.43,2.43,0,0,0,0,2.4V77.5a2.43,2.43,0,0,0,2.4,2.4H15.2V92.7a2.43,2.43,0,0,0,2.4,2.4H76.4a2.43,2.43,0,0,0,2.4-2.4V17.5A2.35,2.35,0,0,0,76.4,15.2ZM15.2,17.5V75H4.7V4.7H58.8V15.2H17.6A2.29,2.29,0,0,0,15.2,17.5Zm4.7,72.8V19.9H74V90.3Z"/><path class="cls-1" d="M64.36,37.75l-2.94-.41a2.71,2.71,0,0,1-1.67-.72,1.57,1.57,0,0,1-.48-1.12c0-1.06.85-2.26,2.94-2.26a6.67,6.67,0,0,1,3.91.87A1.12,1.12,0,0,0,67.53,34l2.26-2.26a1,1,0,0,0-.1-1.56,10.31,10.31,0,0,0-5.64-2V26.38a1.1,1.1,0,0,0-1.1-1.1H60.48a1.1,1.1,0,0,0-1.1,1.1v2A7.34,7.34,0,0,0,53.5,35.7a6.75,6.75,0,0,0,1.67,4.88,8.21,8.21,0,0,0,4.89,2.15l2.93.41a2.82,2.82,0,0,1,1.61.65,2.05,2.05,0,0,1,.47,1.44c0,1.4-1.12,2.18-3.48,2.18a9.26,9.26,0,0,1-4.57-1,1.38,1.38,0,0,0-1.71.19l-2,2a1.24,1.24,0,0,0,.11,1.86,11.1,11.1,0,0,0,6,2.18v1.92a1.36,1.36,0,0,0,1.37,1.36h1.93a1.36,1.36,0,0,0,1.37-1.36V52.5C68,51.76,71,49.21,71,45.09a7.13,7.13,0,0,0-1.81-5.33A8.25,8.25,0,0,0,64.36,37.75Z"/><rect class="cls-1" x="23.61" y="47.11" width="6.42" height="7.96" rx="1.3"/><rect class="cls-1" x="33.11" y="41.24" width="6.42" height="13.83" rx="1.3"/><rect class="cls-1" x="42.61" y="36.38" width="6.42" height="18.69" rx="1.3"/><path class="cls-1" d="M58.17,61.57v12l12,.88V74.3A12.75,12.75,0,0,0,58.17,61.57Z"/><path class="cls-1" d="M48.94,83.8A12.74,12.74,0,0,0,70.1,75.92L57.72,75Z"/><path class="cls-1" d="M56.72,74V61.57a12.74,12.74,0,0,0-8.81,21.2L56.72,74Z"/><path class="cls-1" d="M25.49,40.63l6.89-6.88,4.1,4.1s0,0,.05,0a1.49,1.49,0,0,0,2.13,0l7.82-7.81.75.75a.76.76,0,0,0,1.27-.37l1-4.57a.76.76,0,0,0-.9-.91L44.06,26a.76.76,0,0,0-.36,1.27l.64.64L37.6,34.69l-4.15-4.15a1.53,1.53,0,0,0-2.15,0l-7.95,8a1.51,1.51,0,0,0,2.14,2.14Z"/><path class="cls-1" d="M37.14,61.51H27.55a2.62,2.62,0,0,0-2.63,2.63v20a2.63,2.63,0,0,0,2.63,2.63h9.59a2.63,2.63,0,0,0,2.63-2.63v-20A2.63,2.63,0,0,0,37.14,61.51Zm-7.22,1.43h4.84v.66H29.92Zm2.42,23a1.6,1.6,0,1,1,1.6-1.6A1.6,1.6,0,0,1,32.34,85.93Zm5.28-4.07H27.06v-17H37.62Z"/></g></g></svg>